<svg width="51" height="20" viewBox="0 0 51 20" fill="none" xmlns="http://www.w3.org/2000/svg">
<g clip-path="url(#clip0_129_1662)">
<path d="M4.8768 16.383C3.29331 16.383 2.08464 15.8107 1.25078 14.6663C0.416928 13.5218 0 11.9623 0 9.98569C0 8.00906 0.425351 6.39063 1.27605 5.22868C2.12675 4.06672 3.31858 3.49448 4.85153 3.51196C5.87911 3.49448 6.7256 3.7129 7.391 4.16719C8.0564 4.62149 8.55334 5.25489 8.88183 6.06738C9.21032 6.87987 9.40826 7.83652 9.47564 8.93731L9.3493 9.88086C9.3493 8.55291 9.0166 7.49579 8.3512 6.70951C7.6858 5.92323 6.78035 5.53009 5.63485 5.53009C4.48935 5.53009 3.59653 5.91886 3.00694 6.69641C2.41734 7.47395 2.12254 8.57038 2.12254 9.98569C2.12254 11.401 2.40892 12.4581 2.98167 13.2095C3.55442 13.9608 4.43881 14.3365 5.63485 14.3365C6.40974 14.3365 7.07093 14.1748 7.61841 13.8516C8.1659 13.5283 8.59125 13.0435 8.89447 12.397C9.19769 11.7505 9.3493 10.9729 9.3493 10.0643L9.47564 10.9554C9.4251 11.7767 9.29876 12.5193 9.09661 13.1832C8.89447 13.8472 8.60388 14.4151 8.22486 14.8869C7.84583 15.3586 7.37837 15.7256 6.82246 15.9877C6.26656 16.2498 5.618 16.3808 4.8768 16.3808V16.383ZM9.19769 8.12482L9.12188 7.49579H9.77886V8.12482H9.19769ZM9.14715 12.4494L9.17242 11.8204H9.67779V12.4494H9.14715ZM9.3493 16.0685V3.82647H11.4971V16.0663H9.3493V16.0685Z" fill="#4E5B71"/>
<path d="M15.7169 11.6633L15.7927 11.7157L15.4137 12.3185C15.3126 12.4583 15.2284 12.5806 15.161 12.6855C15.0936 12.7903 15.0599 12.9126 15.0599 13.0524C15.0599 13.297 15.161 13.4717 15.3631 13.5766C15.5653 13.6814 15.8517 13.7338 16.2223 13.7338C16.9466 13.7338 17.6794 13.7251 18.4206 13.7076C19.1618 13.6902 19.8778 13.6814 20.5684 13.6814C21.7476 13.6814 22.6067 13.9348 23.1458 14.4415C23.6849 14.9482 23.9544 15.6559 23.9544 16.5645C23.9544 17.3158 23.7691 17.9492 23.3985 18.4646C23.0279 18.9801 22.4172 19.3645 21.5665 19.6179C20.7158 19.8712 19.5408 19.9979 18.0416 19.9979C16.5423 19.9979 15.3716 19.8931 14.5293 19.6834C13.687 19.4737 13.0932 19.1767 12.7479 18.7923C12.4025 18.4079 12.2299 17.9623 12.2299 17.4556C12.2299 17.0712 12.3562 16.7173 12.6089 16.3941C12.8616 16.0708 13.2448 15.8131 13.7586 15.6209C14.2724 15.4287 14.9083 15.3064 15.6664 15.254L16.0201 15.3588C15.5484 15.3588 15.161 15.4375 14.8578 15.5947C14.5545 15.752 14.3313 15.9354 14.1882 16.1451C14.045 16.3548 13.9734 16.5732 13.9734 16.8003C13.9734 17.1498 14.0871 17.4337 14.3145 17.6521C14.5419 17.8706 14.9504 18.0278 15.54 18.1239C16.1296 18.22 16.9466 18.2681 17.991 18.2681C19.1365 18.2681 20.0083 18.2069 20.6063 18.0846C21.2043 17.9623 21.6171 17.7701 21.8445 17.508C22.0719 17.2459 22.1856 16.9314 22.1856 16.5645C22.1856 16.2499 22.0761 15.9704 21.8571 15.7258C21.6381 15.4811 21.2422 15.3588 20.6695 15.3588H15.6916C15.2368 15.3588 14.8367 15.3064 14.4914 15.2016C14.146 15.0967 13.8723 14.922 13.6702 14.6774C13.468 14.4328 13.3669 14.1182 13.3669 13.7338C13.3669 13.4368 13.4849 13.1572 13.7207 12.8951C13.9565 12.633 14.2682 12.4146 14.6556 12.2399L15.7169 11.6633ZM18.448 5.6089L19.863 5.45165L19.8377 5.89721L18.9028 5.6089C19.4419 5.64385 19.9304 5.71811 20.3684 5.83168C20.8064 5.94526 21.2022 6.11125 21.556 6.32966C21.9098 6.54808 22.1835 6.83638 22.3772 7.19458C22.5709 7.55277 22.6678 8.01144 22.6678 8.57057C22.6678 9.33938 22.4825 9.97715 22.1119 10.4839C21.7413 10.9906 21.1938 11.3794 20.4695 11.6502C19.7451 11.921 18.8439 12.0564 17.7657 12.0564C16.1991 12.0564 15.0031 11.6939 14.1776 10.9687C13.3522 10.2436 12.9395 9.26949 12.9395 8.04638C12.9395 7.13779 13.1374 6.36898 13.5333 5.73995C13.9292 5.11092 14.5019 4.63478 15.2515 4.31153C16.0012 3.98828 16.8982 3.82666 17.9426 3.82666H23.6027V5.76616H21.9098C21.6065 5.76616 21.3117 5.75742 21.0254 5.73995C20.739 5.72248 20.3894 5.705 19.9767 5.68753C19.564 5.67006 19.0544 5.64385 18.448 5.6089ZM17.7636 5.71374C16.7697 5.71374 16.0454 5.92778 15.5906 6.35587C15.1357 6.78396 14.9083 7.36494 14.9083 8.0988C14.9083 8.83267 15.1273 9.45733 15.5653 9.86794C16.0033 10.2786 16.7445 10.4839 17.7889 10.4839C18.8333 10.4839 19.6124 10.2786 20.0757 9.86794C20.5389 9.45733 20.7706 8.86761 20.7706 8.0988C20.7706 7.32999 20.5179 6.76212 20.0125 6.34277C19.5071 5.92342 18.7575 5.71374 17.7636 5.71374ZM14.9841 15.4374V14.9919H15.2873V15.4112L14.9841 15.4374Z" fill="#4E5B71"/>
<path d="M27.3172 1.91329H24.8409V0H27.3172V1.91329ZM27.1404 16.0686H25.0178V3.82658H27.1404V16.0664V16.0686Z" fill="#4E5B71"/>
<path d="M38.4795 7.16173C38.4795 4.48399 36.6349 3.28491 34.805 3.28491C33.1331 3.28491 31.697 3.95762 30.5347 5.2812C28.888 7.14207 27.9805 9.66255 27.9805 12.3774C27.9805 15.2823 29.8208 16.6059 31.5328 16.6059C33.2447 16.6059 34.6934 15.9528 35.8621 14.5484C37.5803 12.5871 38.4795 9.34803 38.4795 7.15954V7.16173ZM34.7524 12.1393C33.5479 14.2252 32.3877 15.1949 31.1032 15.1949C30.3052 15.1949 29.6545 14.4501 29.6545 13.5328C29.6545 12.2027 30.2904 10.2566 31.3117 8.4591C32.8552 5.77918 34.0765 4.6347 35.3946 4.6347C36.3654 4.6347 36.8749 5.43846 36.8749 6.23348C36.8749 7.40635 35.9042 10.1103 34.7545 12.1393H34.7524Z" fill="#4E5B71"/>
<path d="M51 13.7709L50.9642 13.7534L50.6546 13.4979C50.5873 13.4302 50.543 13.4149 50.4778 13.4367C50.1324 13.9107 48.9722 15.0049 48.4647 15.0049C48.1383 15.0049 47.9425 14.7537 47.9425 14.3344C47.9425 13.8604 48.3447 12.7203 49.187 10.4991C50.3472 7.47407 50.8441 5.80759 50.8441 4.92302C50.8441 4.11052 50.2925 3.28711 49.2375 3.28711C46.3127 3.28711 43.4679 7.44786 42.6677 8.7212L42.5835 8.85443L42.1666 8.56613L42.3919 7.99826C42.9246 6.65721 43.6532 4.81818 43.6532 4.21754C43.6532 4.12144 43.6237 3.28711 42.6319 3.28711C39.7682 3.28711 37.7004 5.93426 37.4751 6.23567C37.4435 6.27062 37.4393 6.28372 37.4393 6.28372C37.4393 6.28372 37.4519 6.3012 37.4835 6.31867L37.5235 6.34925L37.8625 6.70089C37.8794 6.71836 37.892 6.72273 37.8941 6.72273L37.9236 6.66813C38.311 6.26625 39.625 4.95796 40.2841 4.95796C40.6526 4.95796 40.8989 5.22661 40.8989 5.62849C40.8989 5.96266 40.5894 6.88217 40.0398 8.48313C39.8566 9.01606 39.6608 9.58611 39.4713 10.1627L37.3719 16.0882C37.3466 16.1691 37.3508 16.2346 37.3698 16.2586C37.3887 16.287 37.4456 16.2914 37.4751 16.2914H39.4502C39.684 16.2914 39.7092 16.2608 39.7408 16.1953L40.7242 13.2598C41.2253 11.9581 41.7812 10.9971 42.4045 9.96178C43.63 7.90434 46.2979 5.15016 47.3487 5.15016C47.8877 5.15016 48.212 5.49744 48.212 6.07623C48.212 6.4104 47.7235 7.84756 47.0834 9.69314L46.877 10.2916C46.6075 11.0626 46.3464 11.7855 46.1084 12.4408C45.5083 14.1051 45.0324 15.4199 45.0324 15.8087C45.0324 16.3176 45.3588 16.6103 45.9294 16.6103C48.4415 16.6103 50.5451 14.4545 50.9305 13.9194C50.9979 13.8146 50.9915 13.7731 50.9915 13.7709H51Z" fill="#4E5B71"/>
</g>
<defs>
<clipPath id="clip0_129_1662">
<rect width="51" height="20" fill="white"/>
</clipPath>
</defs>
</svg>
