<svg width="452" height="69" viewBox="0 0 452 69" fill="none" xmlns="http://www.w3.org/2000/svg">
<path fill-rule="evenodd" clip-rule="evenodd" d="M19.2353 0.72551C8.91353 2.95294 1.51957 10.3293 0.23003 19.6847C-1.7445 34.0133 9.21095 45.6137 24.7006 45.595C27.4254 45.5918 30.2695 45.2886 31.178 44.9052C32.0686 44.5287 34.6191 44.0756 36.8457 43.8983L40.8941 43.5759L41.0414 33.8017L41.1882 24.0276H48.4899C53.7096 24.0276 56.2072 24.2424 57.2495 24.7801C62.3947 27.4365 64.2613 34.2586 61.3124 39.6341C59.2937 43.3145 57.1297 44.4971 51.7437 44.8629L47.3715 45.1596L52.7801 45.4654C59.4194 45.8408 62.6403 47.1695 64.8151 50.4301C66.0696 52.311 66.2639 53.1508 66.2639 56.6973C66.2639 60.2685 66.0739 61.0772 64.7789 63.0187C62.1523 66.9567 60.0709 67.6353 49.9565 67.85L41.2055 68.0359L41.0501 63.0358L40.8941 58.0363H38.465H36.036L35.737 62.053C35.5723 64.2622 35.147 66.5963 34.7924 67.2395C34.4372 67.8832 34.1468 68.5457 34.1468 68.7123C34.1468 69.1906 52.7817 69.0368 58.2276 68.5141C63.8289 67.9759 66.6007 66.8201 69.122 63.9704C71.0604 61.7804 71.611 59.5326 71.2898 55.1249C70.9125 49.9465 67.6419 46.6308 61.6892 45.3909L58.7069 44.7697L60.8499 44.0258C67.6446 41.6687 70.0272 33.6555 65.6431 27.9057C62.5172 23.8059 58.3571 22.9565 41.4074 22.9565C30.0352 22.9565 28.2092 23.0679 28.2092 23.7598C28.2092 24.3752 28.8947 24.5632 31.1396 24.5632C35.6517 24.5632 35.7661 24.8026 35.7661 34.272V42.2969L33.2022 43.472C31.0781 44.4456 29.666 44.647 24.9705 44.647C19.0075 44.647 17.2035 44.0948 12.9317 40.9612C10.6122 39.2597 7.30605 34.0053 6.0829 30.0769C2.49928 18.5653 8.40235 5.31106 18.6469 1.86681C24.3475 -0.0499945 30.6689 1.41907 33.7992 5.38764L35.1772 7.13467L36.6524 6.04211C37.4632 5.4412 38.2092 4.70479 38.3101 4.40541C38.6059 3.5244 33.6005 1.13897 30.134 0.50914C26.0846 -0.226732 23.4018 -0.173711 19.2353 0.72551ZM346.791 8.8517C346.507 9.39263 344.152 14.7435 341.559 20.7424C337.622 29.8492 336.896 31.9647 337.156 33.5586C337.526 35.8171 338.699 37.1576 339.904 36.6986C341.345 36.1502 341.511 34.7615 340.273 33.617C339.641 33.0327 339.122 32.022 339.118 31.3708C339.11 29.7743 345.693 14.789 346.173 15.3123C346.88 16.0846 354.238 33.2983 354.238 34.182C354.238 34.6651 353.947 35.3495 353.59 35.703C353.087 36.2027 353.815 36.3457 356.869 36.3457H360.794L359.765 35.0475C359.199 34.3336 356.235 28.0074 353.179 20.9888C350.122 13.9707 347.551 8.14743 347.464 8.04835C347.379 7.9498 347.076 8.31131 346.791 8.8517ZM95.6972 9.60579C91.7778 11.37 89.7094 13.2627 88.2541 16.4172C85.7965 21.7423 86.5727 27.2008 90.3679 31.2862C93.4495 34.603 97.1557 36.0709 102.025 35.9028C104.177 35.8283 107.213 35.7239 108.772 35.6703C110.33 35.6173 112.03 35.7732 112.55 36.0169C113.421 36.426 113.495 35.9719 113.495 30.1524C113.495 25.0339 113.663 23.6597 114.388 22.8649C115.247 21.9233 115.108 21.8853 110.832 21.8853H106.382L107.779 23.5333C108.99 24.9611 109.177 25.6793 109.177 28.9152V32.6492L106.883 33.6823C98.985 37.239 90.9287 31.4222 90.8478 22.1049C90.8132 18.1246 93.3901 13.2043 96.4005 11.5038C100.618 9.1211 103.627 9.28552 106.558 12.0592C107.773 13.2096 108.162 13.3194 109.155 12.7924C109.798 12.4502 110.245 11.769 110.152 11.2719C109.639 8.53679 100.431 7.47583 95.6972 9.60579ZM124.477 9.47564C125.235 10.3068 125.37 11.8466 125.37 19.6686C125.37 29.8755 125.721 31.442 128.529 33.7867C130.519 35.4486 135.261 36.6333 137.932 36.1363C140.218 35.7105 142.95 33.9394 144.483 31.8898C145.517 30.5064 145.626 29.5391 145.782 20.3793C145.921 12.154 146.104 10.2115 146.81 9.43762C147.619 8.55071 147.504 8.49609 144.826 8.49609C142.028 8.49609 142.002 8.51055 143.158 9.43922C144.299 10.3567 144.327 10.6598 144.162 20.3766C143.996 30.1845 143.967 30.3982 142.643 31.8207C139.892 34.7765 135.274 35.6141 132.719 33.6207C129.945 31.4554 129.688 30.2627 129.688 19.5283C129.688 10.6571 129.787 9.56348 130.633 9.0745C131.337 8.66747 130.56 8.52447 127.581 8.51215C123.742 8.49662 123.619 8.53518 124.477 9.47564ZM157.996 9.68666C159.222 11.423 159.25 33.7321 158.027 34.739C157.582 35.1059 157.217 35.6173 157.217 35.8755C157.217 36.1341 161.833 36.3457 167.473 36.3457H177.729V34.1558V31.9658L176.068 33.3524C174.503 34.6592 174.067 34.739 168.511 34.739H162.615V28.8477V22.9565H165.273C167.32 22.9565 168.299 23.2639 169.534 24.2954C170.416 25.0318 171.285 25.6343 171.464 25.6343C171.644 25.6343 171.792 24.0463 171.792 22.1054V18.5766L170.131 19.9632C168.791 21.082 167.905 21.3498 165.542 21.3498H162.615V15.4585V9.56722H168.207C173.265 9.56722 173.988 9.69415 175.764 10.8901L177.729 12.2129V10.3545V8.49609H167.442H157.156L157.996 9.68666ZM187.631 9.47564C188.407 10.3256 188.525 12.0378 188.525 22.4209C188.525 33.0637 188.42 34.5017 187.58 35.4272C186.649 36.4533 186.741 36.4641 194.462 36.2193C203.494 35.9328 206.124 35.1867 209.995 31.8142C213.104 29.1059 214.407 26.2716 214.423 22.1885C214.445 16.2608 210.882 11.717 204.549 9.59454C201.886 8.70228 199.905 8.49609 194.004 8.49609C186.999 8.49609 186.77 8.53143 187.631 9.47564ZM224.922 9.33746C225.642 10.053 225.77 11.9939 225.77 22.2832C225.77 32.7943 225.652 34.5157 224.876 35.3661C224.014 36.312 224.349 36.3457 234.593 36.3457H245.202V34.1558V31.9658L243.541 33.3524C241.976 34.6592 241.54 34.739 235.984 34.739H230.088V28.8477V22.9565H232.745C234.817 22.9565 235.769 23.2623 237.064 24.343L238.725 25.7296V22.4686C238.725 18.9825 238.381 18.5841 236.835 20.2786C236.09 21.0954 235.173 21.3498 232.973 21.3498H230.088V15.4114V9.47243L235.984 9.65399C241.215 9.81466 242.025 9.97104 243.171 11.04C244.911 12.6639 245.202 12.5675 245.202 10.3706V8.49609H234.638C225.034 8.49609 224.15 8.57267 224.922 9.33746ZM258.944 9.50296C255.328 11.1327 253.909 14.2738 255.268 17.6425C256.308 20.2213 258.384 21.7916 264.398 24.5487C269.946 27.0916 271.112 27.9983 271.112 29.7694C271.112 31.758 270.122 33.1494 268.117 33.9812C264.419 35.514 260.121 34.4605 257.633 31.412C256.876 30.485 256.549 30.4105 255.557 30.9375C250.833 33.4461 261.203 37.6032 267.781 35.8374C269.067 35.4925 271.01 34.3994 272.099 33.4092C273.82 31.8448 274.08 31.2899 274.08 29.1921C274.08 25.8635 272.234 24.0897 265.382 20.8345C257.61 17.1418 256.108 15.112 258.832 11.9789C261.528 8.8758 267.393 9.30801 269.37 12.7549C270.364 14.488 272.152 14.9218 273.189 13.6815C274.024 12.6832 272.644 10.889 270.018 9.56026C267.268 8.16832 261.966 8.141 258.944 9.50296ZM304.764 9.47564C305.538 10.324 305.658 12.0233 305.658 22.2099C305.658 32.1704 305.524 34.1536 304.785 35.2017L303.912 36.4378L313.017 36.2552C323.166 36.0506 324.788 35.5991 326.731 32.4366C328.754 29.145 327.563 24.3505 324.266 22.5119C323.383 22.0203 322.557 21.5549 322.43 21.4783C322.304 21.4012 322.859 20.6557 323.665 19.8212C326.806 16.5687 325.818 11.6024 321.63 9.59079C319.66 8.64444 318.304 8.49609 311.611 8.49609C304.147 8.49609 303.903 8.5309 304.764 9.47564ZM369.622 9.78681L371.241 11.0722V22.5816C371.241 33.1478 371.157 34.1831 370.213 35.2183L369.185 36.3457H372.051C374.794 36.3457 374.879 36.3034 374.024 35.3661C373.256 34.5248 373.136 32.963 373.165 24.2531L373.2 14.1196L378.698 25.1957C381.722 31.2878 384.339 36.2889 384.513 36.3087C384.686 36.3291 387.412 31.1041 390.568 24.6971L396.308 13.0484L396.325 23.2558C396.338 31.4206 396.183 33.6711 395.549 34.5028C394.277 36.1711 394.53 36.3457 398.231 36.3457C400.16 36.3457 401.739 36.2081 401.739 36.0399C401.739 35.8712 401.375 35.372 400.929 34.9302C399.708 33.7187 399.736 11.4208 400.96 9.68666C401.792 8.50787 401.776 8.49609 399.311 8.49609H396.822L391.349 19.5626L385.877 30.6296L380.498 19.5626L375.119 8.49609L371.561 8.49876L368.003 8.50144L369.622 9.78681ZM412.181 9.47564C413.478 10.8976 413.525 33.3272 412.234 35.1551L411.394 36.3457H415.287C419.024 36.3457 419.144 36.3066 418.286 35.3661C417.608 34.6233 417.393 33.331 417.393 30.0104V25.6343H421.058C426.231 25.6343 430.763 24.3527 432.922 22.279C436.338 18.9981 436.277 14.2947 432.778 11.2473C430.145 8.95293 427.896 8.50251 419.063 8.4993C411.565 8.49609 411.32 8.5309 412.181 9.47564ZM445.701 9.68666C446.927 11.423 446.954 33.7321 445.732 34.739C444.247 35.9617 444.892 36.3457 448.43 36.3457C452.131 36.3457 452.384 36.1711 451.112 34.5028C449.912 32.9282 449.953 11.3957 451.16 9.68666L452 8.49609H448.43H444.861L445.701 9.68666ZM200.397 10.1521C201.93 10.4782 204.139 11.4894 205.393 12.4379C208.211 14.5705 210.658 19.058 210.651 22.0803C210.639 26.8924 206.23 32.7279 201.556 34.1172C200.406 34.4594 197.975 34.739 196.154 34.739H192.843V22.1531V9.56722H195.246C196.567 9.56722 198.885 9.83019 200.397 10.1521ZM317.957 10.143C320.175 10.9104 321.311 12.7699 321.311 15.6342C321.311 17.4658 320.995 18.3045 319.889 19.4024C318.592 20.6883 318.087 20.8142 314.221 20.8142H309.976V15.1907V9.56722H313.134C314.871 9.56722 317.041 9.82644 317.957 10.143ZM427.538 10.8419C431.23 12.7512 432.429 17.0256 430.202 20.3332C428.404 23.0025 425.941 24.026 421.306 24.0265L417.393 24.0276V16.7289V9.42958L421.576 9.67594C424.028 9.82001 426.495 10.3026 427.538 10.8419ZM319.522 22.9923C322.383 24.0678 323.471 25.5679 323.471 28.4407C323.471 33.4167 321.607 34.739 314.591 34.739H309.976V28.5799V22.4209H313.989C316.196 22.4209 318.686 22.678 319.522 22.9923ZM89.8292 53.0426C87.7311 57.9468 86.9046 60.4849 87.2841 60.8598C87.5006 61.0745 88.1213 60.7071 88.6627 60.0446C89.8394 58.6045 94.0627 58.266 94.0627 59.6114C94.0627 60.5882 95.0975 61.2502 95.6713 60.6407C96.3217 59.9488 92.6971 51.106 91.6785 50.9003C91.1025 50.7841 90.4937 51.4889 89.8292 53.0426ZM102.159 55.969V61.1318L105.194 60.8212C113.715 59.9482 112.964 50.8061 104.372 50.8061H102.159V55.969ZM116.194 51.0862C116.194 51.8237 119.7 59.7388 120.332 60.427C121.362 61.5496 122.143 60.5652 124.216 55.5298C126.178 50.7664 126.194 50.6711 125.038 50.9009C124.531 51.0016 123.532 52.6447 122.654 54.8228L121.142 58.5718L120.231 56.4295C119.73 55.2513 118.993 53.5037 118.594 52.5467C118.195 51.5896 117.491 50.8061 117.031 50.8061C116.571 50.8061 116.194 50.9319 116.194 51.0862ZM132.828 52.3448C130.523 54.3874 130.418 57.129 132.562 59.2557C135.849 62.5179 141.78 60.3205 141.78 55.841C141.78 53.2477 139.188 50.8061 136.436 50.8061C135.136 50.8061 134.032 51.2768 132.828 52.3448ZM149.021 52.3448C146.717 54.3874 146.612 57.129 148.755 59.2557C151.704 62.1816 157.336 60.5973 157.851 56.6973C158.019 55.4195 157.886 55.3509 154.923 55.1977C152.41 55.0676 151.82 55.1951 151.82 55.8672C151.82 56.4799 152.39 56.6973 153.998 56.6973C156.004 56.6973 156.131 56.7814 155.601 57.762C154.32 60.1389 150.003 59.5749 149.337 56.9437C148.501 53.6382 151.628 51.4016 154.667 53.132C155.524 53.6199 156.562 54.0195 156.974 54.0195C158.166 54.0195 157.259 52.4615 155.559 51.5896C153.161 50.3589 150.977 50.6111 149.021 52.3448ZM167.046 51.4755C165.797 52.9719 163.258 60.185 163.794 60.7141C164.157 61.0719 164.611 60.8496 165.161 60.0446C165.75 59.184 166.521 58.8396 167.858 58.8396C169.147 58.8396 170.036 59.2145 170.714 60.0446C172.078 61.7135 172.684 60.8244 171.82 58.4245C170.412 54.517 168.605 50.8061 168.109 50.8061C167.832 50.8061 167.354 51.1076 167.046 51.4755ZM178.383 55.6942C178.533 60.5229 178.588 60.7211 179.824 60.8946C185.712 61.7204 189.637 56.6068 186.177 52.6163C185.111 51.3872 184.377 51.1156 181.568 50.9143L178.227 50.6743L178.383 55.6942ZM195.735 51.3095C193.101 52.4267 192.17 55.4596 193.612 58.2264C194.958 60.8094 198.091 61.6401 200.951 60.1732C205.424 57.8777 204.113 51.5826 199.049 51.0471C197.862 50.9218 196.371 51.0401 195.735 51.3095ZM210.565 51.4755C208.316 53.2729 209.329 55.5978 212.811 56.6331C214.427 57.1135 214.994 57.5451 214.868 58.2017C214.636 59.4159 211.844 59.7431 211.405 58.6077C210.997 57.5537 209.576 57.5023 209.576 58.5413C209.576 59.5369 211.654 60.9819 213.085 60.9819C214.798 60.9819 216.594 59.4657 216.594 58.018C216.594 56.6116 215.125 55.4393 212.644 54.8673C210.654 54.4083 210.873 52.7496 212.955 52.5113C213.768 52.4181 214.434 52.5986 214.434 52.913C214.434 53.2268 214.92 53.4839 215.514 53.4839C216.937 53.4839 216.884 52.6757 215.394 51.6399C213.948 50.6352 211.711 50.5592 210.565 51.4755ZM232.619 55.4923C231.34 58.6452 230.897 60.3537 231.264 60.7141C231.63 61.0724 232.083 60.8512 232.634 60.0446C233.223 59.184 233.993 58.8396 235.33 58.8396C236.62 58.8396 237.509 59.2145 238.187 60.0446C238.728 60.7071 239.36 61.0628 239.592 60.8346C240.41 60.0254 236.467 50.8061 235.302 50.8061C234.823 50.8061 233.783 52.6222 232.619 55.4923ZM246.635 51.7856C245.577 52.9457 245.471 54.7457 246.417 55.4907C246.788 55.7831 248.015 56.3176 249.145 56.6786C250.577 57.1365 251.148 57.6035 251.03 58.2216C250.801 59.4175 248.005 59.7303 247.57 58.6077C247.163 57.5537 245.742 57.5023 245.742 58.5413C245.742 59.5369 247.819 60.9819 249.25 60.9819C250.964 60.9819 252.759 59.4657 252.759 58.018C252.759 56.6116 251.29 55.4393 248.81 54.8673C246.82 54.4083 247.038 52.7496 249.12 52.5113C249.934 52.4181 250.6 52.5986 250.6 52.913C250.6 53.2268 251.086 53.4839 251.679 53.4839C253.102 53.4839 253.05 52.6757 251.559 51.6399C249.949 50.5206 247.729 50.5865 246.635 51.7856ZM259.755 51.7867C257.841 53.3243 258.633 55.3375 261.529 56.2951C263.165 56.8366 263.825 57.3491 263.825 58.0807C263.825 59.3827 261.827 59.7329 260.877 58.5975C260.496 58.1418 259.831 57.7685 259.4 57.7685C258.087 57.7685 258.868 59.5819 260.521 60.3676C262.67 61.39 265.269 60.5984 265.935 58.7196C266.589 56.8757 265.719 55.8131 262.952 55.074C261.421 54.6648 260.856 54.2305 260.856 53.463C260.856 52.2875 262.901 51.9784 263.929 52.9987C264.254 53.3206 264.968 53.4989 265.515 53.3939C266.44 53.2172 266.425 53.1187 265.303 52.0052C263.83 50.5436 261.42 50.4488 259.755 51.7867ZM274.41 51.5243C270.724 53.6349 270.909 58.3951 274.748 60.2026C279.971 62.662 284.914 56.925 281.231 52.6773C279.765 50.9855 276.357 50.4092 274.41 51.5243ZM290.603 51.5537C289.188 52.3314 287.894 54.3076 287.864 55.7349C287.802 58.7014 291.338 61.3868 294.484 60.7623C296.151 60.4313 298.101 59.0613 298.101 58.221C298.101 57.4787 296.466 57.7079 295.595 58.5718C294.55 59.6087 292.721 59.5958 291.204 58.5413C289.762 57.5392 289.562 54.5347 290.852 53.2542C291.927 52.1878 294.537 52.1664 295.595 53.2161C296.49 54.1041 298.101 54.3017 298.101 53.523C298.101 53.2493 297.461 52.5263 296.678 51.9163C295.066 50.6577 292.51 50.5051 290.603 51.5537ZM304.578 55.9384C304.578 59.8058 304.744 61.0167 305.253 60.8491C305.712 60.6986 305.977 59.0544 306.083 55.7167C306.213 51.5885 306.106 50.8061 305.408 50.8061C304.719 50.8061 304.578 51.678 304.578 55.9384ZM314.919 53.0426C312.821 57.9468 311.994 60.4849 312.374 60.8598C312.59 61.0745 313.211 60.7071 313.752 60.0446C315.094 58.4031 318.887 58.3115 319.309 59.9107C319.575 60.9219 321.311 61.4757 321.311 60.5497C321.311 60.3119 320.485 58.0828 319.475 55.5957C317.301 50.2432 316.345 49.7082 314.919 53.0426ZM327.249 55.894V60.9819H328.801C334.497 60.9819 337.529 57.9559 335.854 53.9434C335.04 51.9929 332.607 50.8061 329.425 50.8061H327.249V55.894ZM343.484 52.1927C341.328 53.9927 341.177 56.963 343.126 59.2113C344.207 60.4586 344.857 60.7141 346.948 60.7141C349.113 60.7141 349.691 60.4672 351.044 58.9649C351.91 58.003 352.619 56.7493 352.619 56.1784C352.619 51.6335 347.059 49.2079 343.484 52.1927ZM359.075 51.7867C357.161 53.3243 357.953 55.3375 360.849 56.2951C362.486 56.8366 363.145 57.3491 363.145 58.0807C363.145 59.3827 361.147 59.7329 360.197 58.5975C359.253 57.468 357.893 57.536 358.119 58.7014C358.613 61.2481 364.038 61.4896 365.174 59.0158C366.004 57.2077 365.234 56.1387 362.432 55.2117C360.83 54.682 360.176 54.1684 360.176 53.4395C360.176 52.2864 362.234 51.9913 363.249 52.9987C363.574 53.3206 364.288 53.4989 364.835 53.3939C365.76 53.2172 365.745 53.1187 364.623 52.0052C363.15 50.5436 360.74 50.4488 359.075 51.7867ZM107.977 53.2467C108.815 53.8288 109.177 54.6268 109.177 55.894C109.177 57.9998 107.637 59.3752 105.278 59.3752C103.793 59.3752 103.779 59.343 103.779 55.894C103.779 52.4449 103.793 52.4128 105.278 52.4128C106.103 52.4128 107.317 52.7882 107.977 53.2467ZM138.957 53.2991C140.376 54.5727 140.257 57.4905 138.744 58.5413C136.217 60.298 132.927 58.7491 132.927 55.8024C132.927 52.8198 136.686 51.2597 138.957 53.2991ZM184.746 53.4839C186.985 55.7055 185.304 59.3752 182.047 59.3752H180.428V55.894V52.4128H182.047C182.947 52.4128 184.147 52.8889 184.746 53.4839ZM200.996 53.5396C203.148 55.6749 201.388 59.3752 198.221 59.3752C195.282 59.3752 193.727 55.3611 195.85 53.2542C197.052 52.062 199.652 52.206 200.996 53.5396ZM279.748 53.4839C282.87 56.5816 278.659 61.0772 275.01 58.5413C273.555 57.5296 273.394 54.8282 274.704 53.3923C275.883 52.1 278.399 52.1455 279.748 53.4839ZM333.279 53.2991C335.69 55.4639 333.816 59.3752 330.367 59.3752C328.882 59.3752 328.868 59.343 328.868 55.894V52.4128H330.58C331.521 52.4128 332.736 52.8118 333.279 53.2991ZM349.473 53.2991C350.048 53.8154 350.46 54.9208 350.46 55.9465C350.46 59.0244 346.737 60.502 344.522 58.304C341.375 55.1817 346.17 50.3337 349.473 53.2991ZM92.9831 57.0267C92.9831 57.1402 92.3759 57.2329 91.6337 57.2329C90.1212 57.2329 90.0008 56.8291 90.919 54.8298L91.5538 53.4475L92.2685 55.134C92.6614 56.0616 92.9831 56.9132 92.9831 57.0267ZM168.843 55.7601C169.17 57.0728 169.062 57.2329 167.852 57.2329C166.549 57.2329 166.518 57.1585 167.079 55.345C167.71 53.305 168.265 53.4357 168.843 55.7601ZM236.547 56.5634C236.557 56.9324 235.935 57.2329 235.158 57.2329C234.03 57.2329 233.828 57.0471 234.14 56.2957C234.354 55.7799 234.659 54.9069 234.818 54.3553C235.082 53.4384 235.168 53.4614 235.817 54.6231C236.208 55.322 236.536 56.1955 236.547 56.5634ZM318.073 57.0267C318.073 57.1402 317.466 57.2329 316.723 57.2329C315.156 57.2329 315.198 57.3561 315.989 55.1062L316.605 53.3548L317.339 55.0879C317.742 56.0407 318.073 56.9132 318.073 57.0267Z" fill="white"/>
</svg>
