<svg width="154" height="41" viewBox="0 0 154 41" fill="none" xmlns="http://www.w3.org/2000/svg">
<path d="M44.2787 17.2256V6.86705H42.4392V5.16972H44.2787V3.30267C44.2787 2.53645 44.407 1.91087 44.6611 1.42592C44.9153 0.938545 45.2929 0.579683 45.7963 0.349332C46.2973 0.118982 46.9145 0.00259399 47.6479 0.00259399H48.8412V1.72416H47.9577C47.3696 1.72416 46.9436 1.84297 46.6797 2.08302C46.4159 2.32307 46.2852 2.74498 46.2852 3.35117V5.16972H53.5198V17.228H51.5133V6.86705H46.2828V17.2256H44.2763H44.2787ZM52.5395 2.87107C52.1571 2.87107 51.8303 2.74013 51.5617 2.47583C51.2906 2.21154 51.1551 1.88177 51.1551 1.48411C51.1551 1.08645 51.2906 0.761539 51.5617 0.514215C51.8328 0.266891 52.1595 0.143229 52.5395 0.143229C52.9195 0.143229 53.2681 0.266891 53.5295 0.514215C53.7933 0.761539 53.924 1.08403 53.924 1.48411C53.924 1.8842 53.7933 2.21396 53.5295 2.47583C53.2681 2.74013 52.9365 2.87107 52.5395 2.87107Z" fill="#072137"/>
<path d="M62.4752 17.5115C61.3449 17.5115 60.3307 17.2472 59.4303 16.721C58.53 16.1948 57.8256 15.4577 57.3173 14.5072C56.8066 13.5592 56.5525 12.4607 56.5525 11.2169C56.5525 9.97296 56.8066 8.83333 57.3173 7.89253C57.8256 6.95173 58.53 6.2146 59.4303 5.67874C60.3283 5.14529 61.3449 4.87857 62.4752 4.87857C63.9081 4.87857 65.1013 5.24956 66.0574 5.99153C67.0134 6.7335 67.6185 7.72522 67.8727 8.96911H65.8178C65.658 8.21987 65.2683 7.63793 64.6487 7.2233C64.0267 6.80867 63.2957 6.60256 62.451 6.60256C61.766 6.60256 61.1343 6.77472 60.5534 7.11661C59.9725 7.46092 59.5029 7.97497 59.1447 8.65875C58.7865 9.34495 58.6074 10.1888 58.6074 11.195C58.6074 11.9443 58.7115 12.6111 58.9172 13.193C59.123 13.775 59.4037 14.2575 59.7523 14.6406C60.1032 15.0237 60.5123 15.3147 60.9818 15.5135C61.4514 15.7123 61.9403 15.8117 62.451 15.8117C63.0246 15.8117 63.5402 15.7196 64.0025 15.5377C64.4648 15.3535 64.8544 15.0795 65.1715 14.7133C65.4886 14.3472 65.704 13.9156 65.8153 13.4209H67.8703C67.6161 14.6333 67.0062 15.6178 66.0429 16.3743C65.0795 17.1308 63.8887 17.5115 62.4728 17.5115H62.4752Z" fill="#072137"/>
<path d="M70.7119 17.2254V0H72.7184V7.20149C73.1154 6.48377 73.6769 5.9188 74.403 5.50175C75.1267 5.08711 75.9206 4.88101 76.7798 4.88101C77.702 4.88101 78.508 5.06772 79.193 5.44355C79.8779 5.81939 80.4032 6.3892 80.7687 7.153C81.1341 7.91922 81.3181 8.88426 81.3181 10.0481V17.2254H79.3358V10.2639C79.3358 9.05157 79.0816 8.13987 78.5709 7.52398C78.0602 6.91052 77.322 6.60258 76.349 6.60258C75.664 6.60258 75.0468 6.76989 74.4974 7.1045C73.948 7.43912 73.5147 7.91679 73.1952 8.53995C72.8757 9.16311 72.7184 9.9269 72.7184 10.8362V17.223H70.7119V17.2254Z" fill="#072137"/>
<path d="M88.359 17.5115C87.3885 17.5115 86.5752 17.3393 85.9241 16.9975C85.2706 16.6556 84.7865 16.1997 84.467 15.6348C84.1476 15.0698 83.9902 14.4515 83.9902 13.7798C83.9902 12.9675 84.2008 12.2765 84.622 11.7115C85.0431 11.1466 85.6409 10.7149 86.4131 10.4191C87.1852 10.1233 88.0976 9.97782 89.1481 9.97782H92.3236C92.3236 9.22858 92.2075 8.60299 91.9775 8.09865C91.7476 7.59673 91.4112 7.21847 90.9755 6.96144C90.5374 6.70684 89.9928 6.57833 89.3393 6.57833C88.5745 6.57833 87.9137 6.76989 87.357 7.153C86.8003 7.53611 86.4566 8.10107 86.3308 8.85032H84.2758C84.3702 7.98953 84.6607 7.26696 85.1472 6.68502C85.6337 6.10308 86.2485 5.65693 86.9988 5.34656C87.7467 5.0362 88.526 4.88101 89.3393 4.88101C90.4527 4.88101 91.3821 5.08469 92.1203 5.49205C92.861 5.8994 93.4128 6.46437 93.7807 7.19179C94.1462 7.91679 94.3302 8.77515 94.3302 9.76445V17.2278H92.5391L92.4205 15.0989C92.2607 15.4335 92.0574 15.7487 91.8105 16.0445C91.5636 16.3404 91.278 16.595 90.9513 16.8108C90.6245 17.0266 90.247 17.1987 89.8161 17.3248C89.3853 17.4533 88.9012 17.5164 88.359 17.5164V17.5115ZM88.6713 15.8142C89.228 15.8142 89.7338 15.6978 90.1889 15.4674C90.6415 15.2371 91.0287 14.917 91.3482 14.5097C91.6677 14.1023 91.9098 13.6537 92.0768 13.1591C92.2438 12.6644 92.3285 12.1455 92.3285 11.6048V11.5321H89.3199C88.5406 11.5321 87.9113 11.6242 87.4345 11.8061C86.9576 11.9904 86.6139 12.245 86.4082 12.5723C86.2001 12.8996 86.0984 13.2706 86.0984 13.6853C86.0984 14.0999 86.1976 14.4903 86.3961 14.8103C86.5946 15.1304 86.8899 15.3777 87.2795 15.5523C87.6692 15.7269 88.1339 15.8166 88.6761 15.8166L88.6713 15.8142Z" fill="#072137"/>
<path d="M46.8105 37.7461C45.8399 37.7461 45.0266 37.5739 44.3755 37.232C43.722 36.8902 43.238 36.4343 42.9185 35.8693C42.599 35.3044 42.4417 34.6861 42.4417 34.0144C42.4417 33.2021 42.6522 32.5111 43.0734 31.9461C43.4945 31.3811 44.0924 30.9495 44.8645 30.6537C45.6366 30.3579 46.5491 30.2124 47.5995 30.2124H50.7751C50.7751 29.4632 50.6589 28.8376 50.429 28.3332C50.199 27.8313 49.8626 27.4531 49.4269 27.196C48.9888 26.9414 48.4442 26.8129 47.7907 26.8129C47.0259 26.8129 46.3651 27.0045 45.8084 27.3876C45.2517 27.7707 44.908 28.3357 44.7822 29.0849H42.7273C42.8217 28.2241 43.1121 27.5015 43.5986 26.9196C44.0851 26.3377 44.6999 25.8915 45.4502 25.5812C46.1981 25.2708 46.9775 25.1156 47.7907 25.1156C48.9041 25.1156 49.8335 25.3193 50.5718 25.7266C51.3124 26.134 51.8642 26.699 52.2321 27.4264C52.5976 28.1514 52.7816 29.0097 52.7816 29.999V37.4624H50.9905L50.8719 35.3335C50.7121 35.6681 50.5088 35.9833 50.2619 36.2791C50.0151 36.5749 49.7295 36.8295 49.4027 37.0453C49.0759 37.2611 48.6984 37.4333 48.2675 37.5594C47.8367 37.6879 47.3526 37.7509 46.8105 37.7509V37.7461ZM47.1203 36.0463C47.677 36.0463 48.1828 35.93 48.6379 35.6996C49.0905 35.4693 49.4777 35.1492 49.7972 34.7418C50.1167 34.3345 50.3588 33.8859 50.5258 33.3913C50.6928 32.8966 50.7775 32.3777 50.7775 31.837V31.7642H47.7689C46.9896 31.7642 46.3603 31.8564 45.8835 32.0382C45.4066 32.2225 45.0629 32.4771 44.8572 32.8045C44.649 33.1318 44.5474 33.5028 44.5474 33.9174C44.5474 34.3321 44.6466 34.7224 44.8451 35.0425C45.0436 35.3626 45.3389 35.6099 45.7285 35.7845C46.1182 35.9591 46.5829 36.0488 47.1251 36.0488L47.1203 36.0463Z" fill="#072137"/>
<path d="M55.8845 37.4574V25.3992H57.6998L57.7942 27.5039C58.1766 26.7546 58.7212 26.1678 59.4304 25.7459C60.1396 25.324 60.948 25.1131 61.8532 25.1131C62.7584 25.1131 63.6031 25.2998 64.2881 25.6756C64.9731 26.0514 65.5056 26.6164 65.888 27.3729C66.2704 28.1294 66.4616 29.0921 66.4616 30.2559V37.4574H64.4551V30.4718C64.4551 29.2594 64.1889 28.3501 63.654 27.7439C63.1215 27.1377 62.3687 26.8346 61.3982 26.8346C60.7301 26.8346 60.1323 26.9995 59.6071 27.3244C59.0818 27.6518 58.6631 28.1222 58.3533 28.7356C58.0435 29.3491 57.8886 30.1105 57.8886 31.0197V37.455H55.8821L55.8845 37.4574Z" fill="#072137"/>
<path d="M73.5075 37.746C72.5369 37.746 71.7237 37.5738 71.0726 37.232C70.4191 36.8901 69.935 36.4342 69.6155 35.8692C69.296 35.3043 69.1387 34.686 69.1387 34.0143C69.1387 33.202 69.3493 32.511 69.7704 31.946C70.1915 31.381 70.7894 30.9494 71.5615 30.6536C72.3336 30.3578 73.2461 30.2123 74.2965 30.2123H77.4721C77.4721 29.4631 77.3559 28.8375 77.126 28.3331C76.896 27.8312 76.5596 27.453 76.1239 27.1959C75.6858 26.9413 75.1413 26.8128 74.4877 26.8128C73.7229 26.8128 73.0621 27.0044 72.5054 27.3875C71.9488 27.7706 71.6051 28.3356 71.4792 29.0848H69.4243C69.5187 28.224 69.8091 27.5015 70.2956 26.9195C70.7821 26.3376 71.3969 25.8914 72.1472 25.5811C72.8951 25.2707 73.6745 25.1155 74.4877 25.1155C75.6011 25.1155 76.5306 25.3192 77.2688 25.7265C78.0094 26.1339 78.5613 26.6989 78.9292 27.4263C79.2946 28.1513 79.4786 29.0096 79.4786 29.9989V37.4623H77.6875L77.5689 35.3334C77.4092 35.668 77.2059 35.9832 76.959 36.279C76.7121 36.5748 76.4265 36.8294 76.0997 37.0452C75.773 37.2611 75.3954 37.4332 74.9646 37.5593C74.5337 37.6878 74.0497 37.7509 73.5075 37.7509V37.746ZM73.8173 36.0463C74.374 36.0463 74.8798 35.9299 75.3349 35.6995C75.7875 35.4692 76.1748 35.1491 76.4942 34.7417C76.8137 34.3344 77.0558 33.8858 77.2228 33.3912C77.3898 32.8965 77.4745 32.3776 77.4745 31.8369V31.7642H74.466C73.6866 31.7642 73.0573 31.8563 72.5805 32.0382C72.1037 32.2224 71.76 32.477 71.5542 32.8044C71.3461 33.1317 71.2444 33.5027 71.2444 33.9173C71.2444 34.332 71.3436 34.7223 71.5421 35.0424C71.7406 35.3625 72.0359 35.6098 72.4256 35.7844C72.8153 35.959 73.28 36.0487 73.8221 36.0487L73.8173 36.0463Z" fill="#072137"/>
<path d="M82.5815 37.4575V25.3992H84.3968L84.5154 27.1208C84.8978 26.4976 85.4109 26.0078 86.0548 25.649C86.6986 25.2901 87.4029 25.1107 88.1678 25.1107C88.7874 25.1107 89.3489 25.1955 89.8524 25.3628C90.3534 25.5301 90.7987 25.7847 91.1884 26.1291C91.5781 26.4734 91.8855 26.9074 92.1082 27.4336C92.5221 26.7013 93.0957 26.129 93.8267 25.7241C94.5576 25.3168 95.3321 25.1131 96.143 25.1131C97.0821 25.1131 97.8929 25.2998 98.5779 25.6756C99.2629 26.0515 99.7953 26.6164 100.178 27.3729C100.56 28.1295 100.751 29.0921 100.751 30.256V37.4575H98.7691V30.4718C98.7691 29.2594 98.5222 28.3501 98.0285 27.7439C97.5347 27.1377 96.8352 26.8347 95.9276 26.8347C95.3079 26.8347 94.7488 26.9995 94.2551 27.3244C93.7613 27.6518 93.3716 28.127 93.086 28.7478C92.8004 29.3685 92.6552 30.1347 92.6552 31.044V37.455H90.6487V30.4693C90.6487 29.257 90.4018 28.3477 89.908 27.7415C89.4143 27.1353 88.722 26.8322 87.8313 26.8322C87.2262 26.8322 86.6768 26.9971 86.1831 27.322C85.6893 27.6494 85.2996 28.1246 85.014 28.7453C84.7284 29.3661 84.5832 30.1323 84.5832 31.0416V37.4526H82.5767L82.5815 37.4575Z" fill="#072137"/>
<path d="M103.857 37.4574V25.3992H105.672L105.766 27.5039C106.149 26.7546 106.693 26.1678 107.403 25.7459C108.112 25.324 108.92 25.1131 109.825 25.1131C110.731 25.1131 111.575 25.2998 112.26 25.6756C112.945 26.0514 113.478 26.6164 113.86 27.3729C114.243 28.1294 114.434 29.0921 114.434 30.2559V37.4574H112.427V30.4718C112.427 29.2594 112.161 28.3501 111.626 27.7439C111.094 27.1377 110.341 26.8346 109.37 26.8346C108.702 26.8346 108.104 26.9995 107.579 27.3244C107.054 27.6518 106.635 28.1222 106.325 28.7356C106.016 29.3491 105.861 30.1105 105.861 31.0197V37.455H103.854L103.857 37.4574Z" fill="#072137"/>
<path d="M122.842 37.746C121.729 37.746 120.732 37.4817 119.858 36.9555C118.982 36.4293 118.297 35.6922 117.803 34.7417C117.309 33.7937 117.062 32.688 117.062 31.4295C117.062 30.1711 117.305 29.046 117.791 28.1052C118.278 27.1644 118.96 26.4297 119.844 25.9035C120.727 25.3774 121.741 25.1131 122.888 25.1131C124.036 25.1131 125.069 25.3774 125.897 25.9035C126.725 26.4297 127.356 27.1208 127.795 27.9718C128.233 28.8254 128.45 29.7613 128.45 30.7821V31.284C128.45 31.4586 128.443 31.6599 128.426 31.883H118.563V30.3287H126.468C126.42 29.2279 126.059 28.3671 125.381 27.7439C124.704 27.1208 123.857 26.8104 122.838 26.8104C122.17 26.8104 121.54 26.9656 120.952 27.2759C120.364 27.5863 119.894 28.0422 119.543 28.6386C119.192 29.2376 119.018 29.982 119.018 30.8743V31.5435C119.018 32.5328 119.197 33.362 119.556 34.0313C119.914 34.7005 120.383 35.2024 120.964 35.5395C121.545 35.8741 122.17 36.0414 122.84 36.0414C123.685 36.0414 124.379 35.8547 124.929 35.4789C125.478 35.1054 125.88 34.589 126.134 33.9367H128.116C127.908 34.6714 127.567 35.3212 127.09 35.8862C126.613 36.4536 126.02 36.9022 125.311 37.2368C124.602 37.5714 123.779 37.7387 122.84 37.7387L122.842 37.746Z" fill="#072137"/>
<path d="M135.665 37.746C134.678 37.746 133.811 37.5787 133.064 37.2441C132.316 36.9094 131.723 36.4415 131.285 35.845C130.846 35.2461 130.58 34.5405 130.483 33.7282H132.536C132.616 34.1428 132.783 34.5259 133.037 34.8775C133.291 35.2291 133.637 35.5104 134.075 35.7262C134.513 35.942 135.051 36.0487 135.687 36.0487C136.244 36.0487 136.706 35.9638 137.072 35.7965C137.437 35.6292 137.713 35.4013 137.895 35.1151C138.079 34.829 138.168 34.5162 138.168 34.1816C138.168 33.687 138.052 33.3136 137.822 33.0565C137.592 32.8019 137.253 32.5983 136.808 32.4455C136.363 32.2952 135.82 32.1618 135.184 32.0503C134.659 31.9557 134.141 31.8272 133.632 31.6672C133.122 31.5071 132.669 31.2962 132.272 31.0343C131.875 30.77 131.56 30.4475 131.328 30.0644C131.098 29.6813 130.982 29.2109 130.982 28.6532C130.982 27.967 131.161 27.3584 131.519 26.8225C131.878 26.2891 132.383 25.8696 133.037 25.5665C133.69 25.2634 134.453 25.1131 135.329 25.1131C136.619 25.1131 137.662 25.4234 138.456 26.0466C139.252 26.6698 139.722 27.5693 139.865 28.7502H137.883C137.803 28.144 137.544 27.6687 137.106 27.3269C136.668 26.985 136.067 26.8128 135.302 26.8128C134.538 26.8128 133.986 26.9656 133.596 27.2662C133.206 27.5693 133.01 27.9694 133.01 28.4616C133.01 28.7817 133.117 29.063 133.332 29.3103C133.548 29.5576 133.87 29.7686 134.3 29.9432C134.731 30.1177 135.247 30.2632 135.852 30.3748C136.648 30.5178 137.372 30.7094 138.025 30.9494C138.679 31.1895 139.207 31.5435 139.613 32.0139C140.02 32.4843 140.223 33.1511 140.223 34.0119C140.223 34.7611 140.037 35.4158 139.662 35.9735C139.286 36.5312 138.759 36.9652 138.074 37.278C137.389 37.5884 136.585 37.7436 135.663 37.7436L135.665 37.746Z" fill="#072137"/>
<path d="M148.392 37.746C147.279 37.746 146.281 37.4817 145.408 36.9555C144.531 36.4293 143.846 35.6922 143.353 34.7417C142.859 33.7937 142.612 32.688 142.612 31.4295C142.612 30.1711 142.854 29.046 143.341 28.1052C143.827 27.1644 144.51 26.4297 145.393 25.9035C146.277 25.3774 147.291 25.1131 148.438 25.1131C149.585 25.1131 150.619 25.3774 151.446 25.9035C152.274 26.4297 152.906 27.1208 153.344 27.9718C153.782 28.8254 154 29.7613 154 30.7821V31.284C154 31.4586 153.993 31.6599 153.976 31.883H144.113V30.3287H152.018C151.969 29.2279 151.609 28.3671 150.931 27.7439C150.253 27.1208 149.406 26.8104 148.387 26.8104C147.719 26.8104 147.09 26.9656 146.502 27.2759C145.913 27.5863 145.444 28.0422 145.093 28.6386C144.742 29.2376 144.568 29.982 144.568 30.8743V31.5435C144.568 32.5328 144.747 33.362 145.105 34.0313C145.463 34.7005 145.933 35.2024 146.514 35.5395C147.095 35.8741 147.719 36.0414 148.39 36.0414C149.234 36.0414 149.929 35.8547 150.478 35.4789C151.028 35.1054 151.43 34.589 151.684 33.9367H153.666C153.458 34.6714 153.117 35.3212 152.64 35.8862C152.163 36.4536 151.57 36.9022 150.861 37.2368C150.152 37.5714 149.329 37.7387 148.39 37.7387L148.392 37.746Z" fill="#072137"/>
<path d="M104.726 17.4097C103.973 17.4097 103.312 17.2327 102.741 16.8762C102.17 16.5198 101.729 16.0324 101.419 15.4141C101.11 14.7958 100.955 14.0926 100.955 13.3094C100.955 12.5262 101.11 11.8255 101.419 11.212C101.729 10.5986 102.17 10.116 102.741 9.76445C103.312 9.41287 103.98 9.23828 104.743 9.23828C105.372 9.23828 105.924 9.3668 106.403 9.62624C106.882 9.88327 107.255 10.2446 107.524 10.7101V6.08127H108.821V17.2254H107.647L107.524 15.9403C107.359 16.1973 107.148 16.4374 106.889 16.6604C106.633 16.8835 106.325 17.0629 105.97 17.2011C105.614 17.3394 105.2 17.4097 104.726 17.4097ZM104.866 16.2797C105.381 16.2797 105.834 16.1561 106.226 15.9088C106.618 15.6614 106.923 15.3171 107.146 14.8782C107.366 14.4394 107.478 13.9205 107.478 13.3216C107.478 12.7226 107.366 12.2183 107.146 11.7746C106.923 11.3308 106.618 10.9841 106.226 10.7368C105.834 10.4895 105.381 10.3658 104.866 10.3658C104.35 10.3658 103.927 10.4895 103.53 10.7368C103.133 10.9841 102.828 11.3308 102.61 11.7746C102.395 12.2183 102.286 12.7348 102.286 13.3216C102.286 13.9083 102.395 14.4394 102.61 14.8782C102.826 15.3171 103.133 15.659 103.53 15.9088C103.927 16.1561 104.372 16.2797 104.866 16.2797Z" fill="#072137"/>
<path d="M114.383 17.4097C113.662 17.4097 113.018 17.2399 112.452 16.898C111.885 16.5586 111.442 16.0809 111.123 15.4674C110.803 14.854 110.644 14.1387 110.644 13.324C110.644 12.5093 110.801 11.7818 111.116 11.1732C111.43 10.5646 111.873 10.0894 112.444 9.7499C113.016 9.41044 113.671 9.23828 114.415 9.23828C115.158 9.23828 115.826 9.40801 116.361 9.7499C116.895 10.0894 117.304 10.5379 117.588 11.0884C117.871 11.6412 118.014 12.2474 118.014 12.9069V13.2318C118.014 13.3458 118.009 13.4743 117.999 13.6198H111.619V12.6135H116.733C116.702 11.9007 116.467 11.3454 116.031 10.9429C115.593 10.5404 115.044 10.3391 114.385 10.3391C113.952 10.3391 113.546 10.441 113.166 10.6422C112.786 10.8435 112.481 11.1369 112.253 11.5248C112.026 11.9128 111.914 12.3953 111.914 12.9724V13.4064C111.914 14.0465 112.03 14.5824 112.263 15.0164C112.495 15.4505 112.798 15.7754 113.175 15.9912C113.55 16.207 113.955 16.3161 114.388 16.3161C114.935 16.3161 115.385 16.1949 115.741 15.9524C116.097 15.7099 116.356 15.3777 116.52 14.9534H117.803C117.67 15.4287 117.447 15.8481 117.14 16.2143C116.83 16.5804 116.448 16.8714 115.988 17.0896C115.53 17.3054 114.995 17.4145 114.388 17.4145L114.383 17.4097Z" fill="#072137"/>
<path d="M10.3955 41H22.7153C27.9143 41 32.1306 37.295 32.1306 32.7219V16.6943C32.1306 15.3025 30.8454 14.1726 29.2625 14.1726H16.9427C11.7437 14.1726 7.52734 17.8776 7.52734 22.4507V38.4782C7.52734 39.87 8.81257 41 10.3955 41Z" fill="#336DFF"/>
<path d="M2.86817 31.2574H15.188C20.387 31.2574 24.6033 27.0335 24.6033 21.8251V3.56436C24.6033 1.97858 23.3181 0.69104 21.7351 0.69104H9.41533C4.21632 0.69104 0 4.91252 0 10.1233V28.384C0 29.9698 1.28523 31.2574 2.86817 31.2574Z" fill="#65EAD0"/>
<path d="M24.6008 14.1702V21.8251C24.6008 27.0335 20.3845 31.2549 15.1855 31.2549H7.52734V22.4483C7.52734 17.8776 11.7412 14.1702 16.9403 14.1702H24.6008Z" fill="#3698E8"/>
</svg>
