<svg width="255" height="28" viewBox="0 0 255 28" fill="none" xmlns="http://www.w3.org/2000/svg">
<rect x="0.898315" y="0.0394287" width="253.559" height="27.6781" rx="13.8391" fill="black"/>
<g clip-path="url(#clip0_129_1309)">
<rect width="12.3014" height="12.3014" transform="translate(14.6328 7.72778)" fill="black"/>
<path d="M25.5404 17.1712C25.3621 17.5831 25.1511 17.9622 24.9066 18.3108C24.5733 18.7859 24.3004 19.1148 24.0901 19.2975C23.7641 19.5973 23.4148 19.7508 23.0408 19.7596C22.7723 19.7596 22.4484 19.6832 22.0715 19.5282C21.6933 19.3739 21.3458 19.2975 21.028 19.2975C20.6947 19.2975 20.3373 19.3739 19.955 19.5282C19.572 19.6832 19.2636 19.7639 19.0277 19.7719C18.6691 19.7872 18.3116 19.6293 17.9547 19.2975C17.7269 19.0988 17.442 18.7583 17.1008 18.2758C16.7346 17.7606 16.4336 17.1632 16.1977 16.4821C15.9451 15.7464 15.8185 15.034 15.8185 14.3443C15.8185 13.5543 15.9892 12.8729 16.3312 12.3018C16.5999 11.8432 16.9574 11.4814 17.4049 11.2158C17.8523 10.9502 18.3358 10.8148 18.8564 10.8062C19.1413 10.8062 19.5149 10.8943 19.9792 11.0675C20.4421 11.2412 20.7394 11.3294 20.8697 11.3294C20.9672 11.3294 21.2974 11.2263 21.8572 11.0209C22.3866 10.8304 22.8334 10.7515 23.1994 10.7826C24.1912 10.8626 24.9364 11.2536 25.4319 11.958C24.5449 12.4955 24.1061 13.2483 24.1148 14.214C24.1228 14.9662 24.3957 15.5921 24.932 16.0891C25.1751 16.3198 25.4465 16.4981 25.7485 16.6247C25.683 16.8146 25.6139 16.9966 25.5404 17.1712ZM23.2656 8.21997C23.2656 8.80955 23.0502 9.36004 22.6209 9.86956C22.1028 10.4753 21.4761 10.8253 20.7965 10.7701C20.7879 10.6993 20.7828 10.6249 20.7828 10.5467C20.7828 9.98068 21.0292 9.37495 21.4668 8.87969C21.6852 8.62893 21.9631 8.42043 22.3 8.2541C22.6362 8.09026 22.9542 7.99965 23.2533 7.98413C23.262 8.06295 23.2656 8.14177 23.2656 8.21997V8.21997Z" fill="white"/>
</g>
<path d="M34.9679 15.7156H36.0741C36.1542 16.4314 36.85 16.9019 37.801 16.9019C38.712 16.9019 39.3677 16.4314 39.3677 15.7857C39.3677 15.2251 38.9723 14.8897 38.0362 14.6594L37.1002 14.4342C35.7738 14.1138 35.1581 13.4932 35.1581 12.4871C35.1581 11.2407 36.2443 10.3848 37.786 10.3848C39.3126 10.3848 40.3588 11.2407 40.3938 12.4871H39.3026C39.2376 11.7663 38.6419 11.3308 37.771 11.3308C36.9 11.3308 36.3044 11.7713 36.3044 12.412C36.3044 12.9226 36.6848 13.2229 37.6158 13.4531L38.4117 13.6483C39.8933 13.9987 40.5089 14.5944 40.5089 15.6505C40.5089 17.002 39.4328 17.8479 37.7209 17.8479C36.1192 17.8479 35.038 17.022 34.9679 15.7156ZM41.4199 17.7278V12.4621H42.5011V17.7278H41.4199ZM41.9605 11.6912C41.6151 11.6912 41.3348 11.4159 41.3348 11.0755C41.3348 10.7302 41.6151 10.4549 41.9605 10.4549C42.3109 10.4549 42.5912 10.7302 42.5912 11.0755C42.5912 11.4159 42.3109 11.6912 41.9605 11.6912ZM45.8497 16.8518C46.6957 16.8518 47.2513 16.1661 47.2513 15.0799C47.2513 13.9987 46.6957 13.288 45.8497 13.288C45.0188 13.288 44.4783 13.9837 44.4783 15.0799C44.4783 16.1811 45.0188 16.8518 45.8497 16.8518ZM45.8598 19.7099C44.6184 19.7099 43.6974 19.0492 43.5623 18.1382H44.6484C44.8036 18.5787 45.2841 18.869 45.8998 18.869C46.7457 18.869 47.2463 18.3885 47.2463 17.6677V16.8018H47.2262C46.9309 17.3724 46.3103 17.7478 45.5594 17.7478C44.238 17.7478 43.3721 16.7167 43.3721 15.0749C43.3721 13.4181 44.233 12.377 45.5845 12.377C46.3303 12.377 46.9409 12.7524 47.2613 13.363H47.2813V12.4621H48.3325V17.6327C48.3325 18.889 47.3614 19.7099 45.8598 19.7099ZM49.4036 17.7278V12.4621H50.4347V13.343H50.4598C50.7451 12.7424 51.3057 12.372 52.1166 12.372C53.2778 12.372 53.9436 13.1128 53.9436 14.3191V17.7278H52.8574V14.5293C52.8574 13.7384 52.487 13.303 51.7362 13.303C50.9753 13.303 50.4848 13.8436 50.4848 14.6594V17.7278H49.4036ZM58.3233 17.7278H57.2021V10.5049H58.3233V17.7278ZM59.5246 17.7278V12.4621H60.5558V13.343H60.5808C60.8661 12.7424 61.4267 12.372 62.2376 12.372C63.3989 12.372 64.0646 13.1128 64.0646 14.3191V17.7278H62.9784V14.5293C62.9784 13.7384 62.608 13.303 61.8572 13.303C61.0963 13.303 60.6058 13.8436 60.6058 14.6594V17.7278H59.5246ZM74.1405 12.4621L72.699 17.7278H71.5727L70.4665 13.7835H70.4415L69.3453 17.7278H68.2291L66.7825 12.4621H67.8637L68.8248 16.6066H68.8448L69.941 12.4621H70.9821L72.0833 16.6066H72.1083L73.0694 12.4621H74.1405ZM74.8363 17.7278V12.4621H75.9175V17.7278H74.8363ZM75.3769 11.6912C75.0315 11.6912 74.7512 11.4159 74.7512 11.0755C74.7512 10.7302 75.0315 10.4549 75.3769 10.4549C75.7273 10.4549 76.0076 10.7302 76.0076 11.0755C76.0076 11.4159 75.7273 11.6912 75.3769 11.6912ZM77.339 11.2157H78.4252V12.4621H79.4263V13.318H78.4252V16.2211C78.4252 16.6766 78.6254 16.8819 79.0659 16.8819C79.176 16.8819 79.3512 16.8719 79.4213 16.8568V17.7128C79.3012 17.7428 79.0609 17.7628 78.8206 17.7628C77.7545 17.7628 77.339 17.3574 77.339 16.3413V13.318H76.5732V12.4621H77.339V11.2157ZM80.3573 17.7278V10.5049H81.4285V13.343H81.4535C81.7438 12.7273 82.3194 12.372 83.1203 12.372C84.2766 12.372 84.9673 13.1428 84.9673 14.3341V17.7278H83.8811V14.5443C83.8811 13.7685 83.4907 13.303 82.7299 13.303C81.929 13.303 81.4385 13.8536 81.4385 14.6845V17.7278H80.3573ZM92.931 17.7278L92.2703 15.7757H89.5173L88.8566 17.7278H87.6903L90.2981 10.5049H91.5095L94.1173 17.7278H92.931ZM90.8788 11.7062L89.8026 14.8747H91.985L90.9088 11.7062H90.8788ZM97.526 12.377C98.8625 12.377 99.7434 13.4281 99.7434 15.0949C99.7434 16.7617 98.8675 17.8179 97.546 17.8179C96.7902 17.8179 96.1895 17.4475 95.8892 16.8618H95.8642V19.4697H94.783V12.4621H95.8292V13.368H95.8492C96.1595 12.7624 96.7652 12.377 97.526 12.377ZM97.2407 16.9019C98.0966 16.9019 98.6322 16.2011 98.6322 15.0949C98.6322 13.9937 98.0966 13.288 97.2407 13.288C96.4148 13.288 95.8592 14.0087 95.8592 15.0949C95.8592 16.1911 96.4098 16.9019 97.2407 16.9019ZM103.322 12.377C104.659 12.377 105.54 13.4281 105.54 15.0949C105.54 16.7617 104.664 17.8179 103.342 17.8179C102.587 17.8179 101.986 17.4475 101.686 16.8618H101.66V19.4697H100.579V12.4621H101.625V13.368H101.645C101.956 12.7624 102.561 12.377 103.322 12.377ZM103.037 16.9019C103.893 16.9019 104.429 16.2011 104.429 15.0949C104.429 13.9937 103.893 13.288 103.037 13.288C102.211 13.288 101.655 14.0087 101.655 15.0949C101.655 16.1911 102.206 16.9019 103.037 16.9019ZM106.416 17.7278V10.5049H107.497V17.7278H106.416ZM110.81 13.2379C110.055 13.2379 109.524 13.8135 109.469 14.6094H112.102C112.077 13.8035 111.566 13.2379 110.81 13.2379ZM112.097 16.1811H113.123C112.973 17.1421 112.062 17.8279 110.856 17.8279C109.309 17.8279 108.373 16.7818 108.373 15.1199C108.373 13.4681 109.324 12.3669 110.81 12.3669C112.272 12.3669 113.183 13.3981 113.183 14.9948V15.3652H109.464V15.4303C109.464 16.3463 110.015 16.9519 110.881 16.9519C111.496 16.9519 111.952 16.6416 112.097 16.1811Z" fill="white"/>
<defs>
<clipPath id="clip0_129_1309">
<rect width="12.3014" height="12.3014" fill="white" transform="translate(14.6328 7.72778)"/>
</clipPath>
</defs>
</svg>
