<svg width="22" height="22" viewBox="0 0 22 22" fill="none" xmlns="http://www.w3.org/2000/svg">
<g clip-path="url(#clip0_23_367)">
<path d="M17.7777 15.6001C18.6925 15.5905 19.4923 14.9727 19.727 14.0867L21.9827 5.68633C22.0546 5.41334 21.8965 5.13557 21.6235 5.05894C21.5804 5.04936 21.5373 5.03978 21.4942 5.03978H4.52585L3.37164 0.777339C3.31417 0.557032 3.11302 0.398987 2.88314 0.398987H0V1.4191H2.48084L3.59674 5.58576C3.59195 5.61928 3.59195 5.65281 3.59674 5.68633L5.89558 14.1154C5.90995 14.1825 5.9339 14.2543 5.95784 14.3214L6.7337 17.147C5.98658 17.5445 5.47892 18.33 5.47892 19.2352C5.47892 20.5426 6.53734 21.601 7.84481 21.601C9.15228 21.601 10.2107 20.5426 10.2107 19.2352C10.2107 18.8281 10.1053 18.4401 9.92335 18.1049C9.88025 18.0283 9.83714 17.9516 9.78446 17.875H15.8046C15.5364 18.2581 15.3735 18.7275 15.3735 19.2352C15.3735 20.5426 16.432 21.601 17.7394 21.601C19.0469 21.601 20.1053 20.5426 20.1053 19.2352C20.1053 18.6173 19.8706 18.057 19.4827 17.6355C19.0661 17.1614 18.453 16.8597 17.7682 16.8549H7.75381L7.39462 15.5378C7.54788 15.5762 7.70592 15.6001 7.86397 15.6001H17.7777ZM17.7442 17.875C18.4961 17.875 19.1044 18.4832 19.1044 19.2352C19.1044 19.9871 18.4961 20.5953 17.7442 20.5953C16.9923 20.5953 16.3841 19.9871 16.3841 19.2352C16.3841 18.4832 16.9923 17.875 17.7442 17.875ZM7.84481 17.875C8.59673 17.875 9.20017 18.488 9.20017 19.2352C9.20017 19.9871 8.59194 20.5953 7.84002 20.5953C7.08811 20.5953 6.48466 19.9871 6.48466 19.2352C6.48466 18.4832 7.0929 17.875 7.84481 17.875ZM6.93485 13.9334L5.79022 9.74763L4.7701 6.06947H20.8093L18.7356 13.8568C18.6207 14.3022 18.2231 14.6135 17.7634 14.6231H7.85439C7.43772 14.5991 7.07374 14.3309 6.93485 13.9334Z" fill="#336DFF"/>
</g>
<defs>
<clipPath id="clip0_23_367">
<rect width="22" height="22" fill="white"/>
</clipPath>
</defs>
</svg>
