<svg width="24" height="25" viewBox="0 0 24 25" fill="none" xmlns="http://www.w3.org/2000/svg">
<rect y="0.75" width="24" height="24" rx="3" fill="#C6DCFF"/>
<path d="M12.007 6.99878C8.70276 6.99878 6.01287 9.68635 6.01167 12.9906C6.01107 14.0469 6.28772 15.078 6.81223 15.9866L5.99878 19.0012L9.13887 18.2593C10.0145 18.737 11.0001 18.9877 12.0035 18.9883H12.0059C15.3096 18.9883 17.9982 16.3001 18 12.9965C18.0012 11.3948 17.3784 9.88881 16.2466 8.75578C15.1148 7.62334 13.6106 6.99938 12.007 6.99878ZM12.0059 8.19902C13.2877 8.19962 14.4924 8.69941 15.398 9.60439C16.3035 10.5106 16.801 11.7147 16.7998 12.9953C16.7986 15.6383 14.6488 17.7881 12.0047 17.7881C11.2047 17.7875 10.4123 17.5866 9.71438 17.2055L9.31 16.9852L8.86343 17.0907L7.68194 17.3696L7.97028 16.2983L8.10038 15.8178L7.85189 15.3864C7.43301 14.6615 7.21131 13.8326 7.21191 12.9906C7.21311 10.3489 9.36353 8.19902 12.0059 8.19902ZM9.88551 10.2244C9.78529 10.2244 9.62325 10.2619 9.48582 10.412C9.34839 10.5614 8.96071 10.9233 8.96071 11.6603C8.96071 12.3972 9.49754 13.1096 9.57256 13.2098C9.64697 13.3094 10.6088 14.8695 12.1313 15.4696C13.3964 15.9683 13.6533 15.8699 13.9281 15.8447C14.203 15.8201 14.8148 15.4831 14.9396 15.1333C15.0645 14.7834 15.0648 14.4824 15.0276 14.4206C14.9904 14.3582 14.8904 14.321 14.7404 14.246C14.591 14.171 13.8546 13.8093 13.7171 13.7595C13.5797 13.7097 13.4792 13.6845 13.3796 13.8345C13.2799 13.9846 12.9937 14.321 12.9061 14.4206C12.8184 14.5208 12.7314 14.5343 12.5814 14.4593C12.4314 14.3836 11.9489 14.2251 11.3764 13.715C10.9311 13.3183 10.6307 12.8288 10.5431 12.6788C10.4561 12.5294 10.5349 12.4474 10.6099 12.3729C10.6771 12.3057 10.7587 12.198 10.8337 12.1104C10.9081 12.0228 10.9339 11.9604 10.9838 11.8607C11.0336 11.7611 11.0081 11.6732 10.9709 11.5982C10.9337 11.5231 10.6423 10.7835 10.5091 10.487C10.3968 10.2379 10.2783 10.2322 10.1715 10.228C10.0845 10.2244 9.98513 10.2244 9.88551 10.2244Z" fill="#336DFF"/>
</svg>
