<svg width="13" height="19" viewBox="0 0 13 19" fill="none" xmlns="http://www.w3.org/2000/svg">
<path d="M6.28877 11.0023H0.459147C0.0845602 11.0023 -0.131846 10.5774 0.0884837 10.2744L7.42177 0.191043C7.71813 -0.216397 8.35934 0.083023 8.23715 0.571781L6.54617 7.33566H12.3758C12.7504 7.33566 12.9668 7.76063 12.7465 8.0635L5.41317 18.1468C5.11681 18.5543 4.47565 18.2549 4.5978 17.7661L6.28877 11.0023ZM6.77571 2.63792L1.35921 10.0857H6.8758C7.174 10.0857 7.3928 10.3659 7.32048 10.6551L6.05924 15.7L11.4757 8.25233H5.95914C5.66095 8.25233 5.44223 7.97211 5.51446 7.6828L6.77571 2.63792Z" fill="#336DFF"/>
</svg>
