<svg width="254" height="28" viewBox="0 0 254 28" fill="none" xmlns="http://www.w3.org/2000/svg">
<rect y="0.0394287" width="253.559" height="27.6781" rx="13.8391" fill="#1877F2"/>
<g clip-path="url(#clip0_129_1329)">
<rect width="12.3014" height="12.3014" transform="translate(13.7345 7.72778)" fill="#1877F2"/>
<path d="M25.7796 13.9143C25.7796 10.6589 23.1406 8.01983 19.8852 8.01983C16.6298 8.01983 13.9908 10.6589 13.9908 13.9143C13.9908 16.8563 16.1463 19.2949 18.9642 19.7371V15.6181H17.4675V13.9143H18.9642V12.6156C18.9642 11.1383 19.8442 10.3223 21.1906 10.3223C21.8355 10.3223 22.51 10.4375 22.51 10.4375V11.888H21.7668C21.0345 11.888 20.8062 12.3424 20.8062 12.8086V13.9143H22.441L22.1796 15.6181H20.8062V19.7371C23.6241 19.2949 25.7796 16.8563 25.7796 13.9143Z" fill="white"/>
</g>
<path d="M37.183 16.6616C37.5467 16.6616 37.842 16.6216 38.0689 16.5415C38.4994 16.388 38.7146 16.1027 38.7146 15.6856C38.7146 15.442 38.6079 15.2534 38.3943 15.1199C38.1807 14.9898 37.8454 14.8747 37.3882 14.7746L36.6074 14.5994C35.8398 14.4259 35.3093 14.2373 35.0156 14.0338C34.5184 13.6934 34.2698 13.1611 34.2698 12.437C34.2698 11.7763 34.5101 11.2274 34.9906 10.7902C35.4711 10.3531 36.1769 10.1345 37.1079 10.1345C37.8854 10.1345 38.5478 10.3414 39.0951 10.7552C39.6457 11.1656 39.9343 11.763 39.961 12.5471H38.4794C38.4527 12.1033 38.2591 11.788 37.8988 11.6011C37.6585 11.4776 37.3598 11.4159 37.0028 11.4159C36.6057 11.4159 36.2887 11.496 36.0517 11.6562C35.8148 11.8163 35.6964 12.0399 35.6964 12.3269C35.6964 12.5905 35.8132 12.7874 36.0467 12.9175C36.1969 13.0043 36.5173 13.1061 37.0078 13.2229L38.2792 13.5282C38.8364 13.6617 39.2569 13.8402 39.5405 14.0638C39.981 14.4108 40.2013 14.9131 40.2013 15.5704C40.2013 16.2445 39.9426 16.8051 39.4254 17.2523C38.9115 17.6961 38.1841 17.918 37.243 17.918C36.282 17.918 35.5262 17.6994 34.9756 17.2623C34.425 16.8218 34.1497 16.2178 34.1497 15.4503H35.6213C35.668 15.7873 35.7598 16.0393 35.8966 16.2061C36.1468 16.5098 36.5756 16.6616 37.183 16.6616ZM42.694 12.2718V17.7278H41.2474V12.2718H42.694ZM42.694 10.3047V11.6211H41.2474V10.3047H42.694ZM45.6222 18.6838C45.7757 18.814 46.0343 18.879 46.398 18.879C46.9119 18.879 47.2556 18.7072 47.4291 18.3635C47.5426 18.1432 47.5993 17.7728 47.5993 17.2523V16.9019C47.4625 17.1355 47.3157 17.3107 47.1588 17.4275C46.8752 17.6444 46.5065 17.7528 46.0526 17.7528C45.3519 17.7528 44.7913 17.5075 44.3708 17.017C43.9537 16.5231 43.7451 15.8557 43.7451 15.0148C43.7451 14.2039 43.947 13.5232 44.3508 12.9726C44.7546 12.4187 45.3268 12.1417 46.0676 12.1417C46.3413 12.1417 46.5799 12.1834 46.7834 12.2668C47.1305 12.4103 47.4108 12.6739 47.6243 13.0577V12.2718H49.0109V17.4475C49.0109 18.1516 48.8924 18.6822 48.6555 19.0392C48.2484 19.6532 47.4675 19.9602 46.3129 19.9602C45.6155 19.9602 45.0465 19.8234 44.6061 19.5498C44.1656 19.2761 43.922 18.8674 43.8753 18.3234H45.427C45.467 18.4903 45.5321 18.6104 45.6222 18.6838ZM45.3819 15.8658C45.5754 16.3263 45.9225 16.5565 46.423 16.5565C46.7567 16.5565 47.0387 16.4314 47.269 16.1811C47.4992 15.9275 47.6143 15.5254 47.6143 14.9748C47.6143 14.4576 47.5042 14.0638 47.284 13.7935C47.0671 13.5232 46.7751 13.3881 46.408 13.3881C45.9075 13.3881 45.5621 13.6233 45.3719 14.0938C45.2718 14.3441 45.2217 14.6528 45.2217 15.0198C45.2217 15.3368 45.2751 15.6188 45.3819 15.8658ZM52.9151 13.328C52.4312 13.328 52.0992 13.5332 51.919 13.9437C51.8256 14.1606 51.7789 14.4375 51.7789 14.7746V17.7278H50.3573V12.2819H51.7338V13.0777C51.9174 12.7974 52.0909 12.5955 52.2544 12.4721C52.548 12.2518 52.9201 12.1417 53.3706 12.1417C53.9345 12.1417 54.395 12.2902 54.7521 12.5872C55.1125 12.8808 55.2927 13.3697 55.2927 14.0538V17.7278H53.8311V14.4092C53.8311 14.1222 53.7927 13.902 53.716 13.7485C53.5758 13.4681 53.3089 13.328 52.9151 13.328ZM59.4622 10.3498H60.9939V17.7278H59.4622V10.3498ZM64.8881 13.328C64.4043 13.328 64.0722 13.5332 63.8921 13.9437C63.7986 14.1606 63.7519 14.4375 63.7519 14.7746V17.7278H62.3304V12.2819H63.7069V13.0777C63.8904 12.7974 64.0639 12.5955 64.2274 12.4721C64.5211 12.2518 64.8931 12.1417 65.3436 12.1417C65.9076 12.1417 66.3681 12.2902 66.7251 12.5872C67.0855 12.8808 67.2657 13.3697 67.2657 14.0538V17.7278H65.8041V14.4092C65.8041 14.1222 65.7658 13.902 65.689 13.7485C65.5489 13.4681 65.2819 13.328 64.8881 13.328ZM75.5798 17.7278L74.7238 13.7535L73.8579 17.7278H72.3763L70.8446 12.2718H72.3763L73.2272 16.1861L74.0131 12.2718H75.4596L76.2905 16.2011L77.1415 12.2718H78.6281L77.0464 17.7278H75.5798ZM80.8855 12.2718V17.7278H79.439V12.2718H80.8855ZM80.8855 10.3047V11.6211H79.439V10.3047H80.8855ZM84.7698 16.7117V17.7778L84.094 17.8029C83.42 17.8262 82.9595 17.7094 82.7125 17.4525C82.5524 17.289 82.4723 17.037 82.4723 16.6967V13.338H81.7114V12.3219H82.4723V10.8002H83.8838V12.3219H84.7698V13.338H83.8838V16.2211C83.8838 16.4447 83.9122 16.5849 83.9689 16.6416C84.0256 16.695 84.1992 16.7217 84.4895 16.7217C84.5329 16.7217 84.5779 16.7217 84.6246 16.7217C84.6747 16.7184 84.7231 16.715 84.7698 16.7117ZM90.6161 14.5243V17.7278H89.1596V14.4092C89.1596 14.1155 89.1095 13.8786 89.0094 13.6984C88.8793 13.4448 88.6323 13.318 88.2686 13.318C87.8915 13.318 87.6045 13.4448 87.4076 13.6984C87.2141 13.9487 87.1173 14.3074 87.1173 14.7746V17.7278H85.6958V10.3748H87.1173V12.9826C87.3242 12.6656 87.5628 12.4454 87.8331 12.3219C88.1067 12.1951 88.3937 12.1317 88.694 12.1317C89.0311 12.1317 89.3364 12.1901 89.61 12.3069C89.887 12.4237 90.1139 12.6022 90.2908 12.8425C90.441 13.046 90.5327 13.2562 90.5661 13.4732C90.5995 13.6867 90.6161 14.0371 90.6161 14.5243ZM100.152 11.6562H96.4525V13.353H99.691V14.6344H96.4525V17.7278H94.9208V10.3598H100.152V11.6562ZM101.278 12.8625C101.655 12.382 102.302 12.1417 103.22 12.1417C103.817 12.1417 104.348 12.2602 104.812 12.4971C105.275 12.734 105.507 13.1812 105.507 13.8385V16.3413C105.507 16.5148 105.511 16.725 105.517 16.972C105.527 17.1588 105.556 17.2856 105.602 17.3524C105.649 17.4191 105.719 17.4742 105.813 17.5176V17.7278H104.261C104.218 17.6177 104.188 17.5142 104.171 17.4174C104.154 17.3207 104.141 17.2106 104.131 17.0871C103.934 17.3007 103.707 17.4825 103.45 17.6327C103.143 17.8095 102.796 17.898 102.409 17.898C101.915 17.898 101.506 17.7578 101.183 17.4775C100.862 17.1939 100.702 16.7934 100.702 16.2762C100.702 15.6055 100.961 15.1199 101.478 14.8196C101.762 14.6561 102.179 14.5393 102.729 14.4692L103.215 14.4092C103.478 14.3758 103.667 14.3341 103.78 14.284C103.984 14.1973 104.086 14.0621 104.086 13.8786C104.086 13.655 104.007 13.5015 103.851 13.4181C103.697 13.3313 103.47 13.288 103.17 13.288C102.833 13.288 102.594 13.3714 102.454 13.5382C102.354 13.6617 102.287 13.8285 102.254 14.0388H100.877C100.907 13.5616 101.041 13.1695 101.278 12.8625ZM102.339 16.6967C102.472 16.8068 102.636 16.8618 102.829 16.8618C103.136 16.8618 103.418 16.7717 103.675 16.5915C103.936 16.4114 104.071 16.0827 104.081 15.6055V15.0749C103.991 15.1316 103.899 15.1783 103.805 15.215C103.715 15.2484 103.59 15.2801 103.43 15.3102L103.11 15.3702C102.809 15.4236 102.594 15.4887 102.464 15.5654C102.244 15.6956 102.134 15.8975 102.134 16.1711C102.134 16.4147 102.202 16.5899 102.339 16.6967ZM111.499 14.229H110.037C110.011 14.0254 109.942 13.8419 109.832 13.6784C109.672 13.4581 109.423 13.348 109.086 13.348C108.606 13.348 108.277 13.5866 108.1 14.0638C108.007 14.3174 107.96 14.6544 107.96 15.0749C107.96 15.4753 108.007 15.7973 108.1 16.0409C108.27 16.4948 108.591 16.7217 109.061 16.7217C109.395 16.7217 109.632 16.6316 109.772 16.4514C109.912 16.2712 109.997 16.0376 110.027 15.7506H111.484C111.45 16.1844 111.294 16.5949 111.013 16.982C110.566 17.606 109.904 17.918 109.026 17.918C108.149 17.918 107.503 17.6577 107.089 17.1371C106.675 16.6166 106.468 15.9408 106.468 15.1099C106.468 14.1722 106.697 13.4431 107.154 12.9226C107.611 12.402 108.242 12.1417 109.046 12.1417C109.73 12.1417 110.289 12.2952 110.723 12.6022C111.16 12.9092 111.419 13.4515 111.499 14.229ZM117.155 16.126C117.118 16.4497 116.95 16.7784 116.649 17.1121C116.182 17.6427 115.528 17.908 114.687 17.908C113.993 17.908 113.381 17.6844 112.85 17.2372C112.32 16.7901 112.054 16.0626 112.054 15.0549C112.054 14.1105 112.293 13.3864 112.77 12.8825C113.251 12.3786 113.873 12.1267 114.637 12.1267C115.091 12.1267 115.5 12.2118 115.864 12.382C116.227 12.5521 116.528 12.8208 116.765 13.1878C116.978 13.5115 117.117 13.8869 117.18 14.3141C117.217 14.5643 117.232 14.9247 117.225 15.3952H113.491C113.511 15.9425 113.683 16.3263 114.007 16.5465C114.203 16.6833 114.44 16.7517 114.717 16.7517C115.011 16.7517 115.25 16.6683 115.433 16.5014C115.533 16.4114 115.622 16.2862 115.698 16.126H117.155ZM115.743 14.4542C115.72 14.0771 115.605 13.7918 115.398 13.5983C115.195 13.4014 114.941 13.303 114.637 13.303C114.307 13.303 114.05 13.4064 113.866 13.6133C113.686 13.8202 113.573 14.1005 113.526 14.4542H115.743ZM121.154 17.8729C120.704 17.8729 120.342 17.7828 120.068 17.6026C119.905 17.4959 119.728 17.309 119.538 17.042V17.7278H118.141V10.3598H119.563V12.9826C119.743 12.729 119.941 12.5355 120.158 12.402C120.415 12.2351 120.742 12.1517 121.139 12.1517C121.857 12.1517 122.417 12.4103 122.821 12.9276C123.228 13.4448 123.432 14.1122 123.432 14.9297C123.432 15.7773 123.232 16.4798 122.831 17.037C122.431 17.5943 121.872 17.8729 121.154 17.8729ZM121.935 15.0799C121.935 14.6928 121.885 14.3725 121.785 14.1189C121.595 13.6383 121.244 13.3981 120.734 13.3981C120.217 13.3981 119.861 13.6333 119.668 14.1038C119.568 14.3541 119.518 14.6778 119.518 15.0749C119.518 15.5421 119.621 15.9292 119.828 16.2362C120.035 16.5432 120.35 16.6967 120.774 16.6967C121.141 16.6967 121.426 16.5482 121.63 16.2512C121.833 15.9542 121.935 15.5638 121.935 15.0799ZM129.008 12.9626C129.468 13.5399 129.699 14.2223 129.699 15.0098C129.699 15.8107 129.468 16.4964 129.008 17.0671C128.547 17.6343 127.848 17.918 126.911 17.918C125.973 17.918 125.274 17.6343 124.813 17.0671C124.353 16.4964 124.123 15.8107 124.123 15.0098C124.123 14.2223 124.353 13.5399 124.813 12.9626C125.274 12.3853 125.973 12.0967 126.911 12.0967C127.848 12.0967 128.547 12.3853 129.008 12.9626ZM126.906 13.303C126.489 13.303 126.167 13.4515 125.94 13.7485C125.716 14.0421 125.604 14.4626 125.604 15.0098C125.604 15.5571 125.716 15.9792 125.94 16.2762C126.167 16.5732 126.489 16.7217 126.906 16.7217C127.323 16.7217 127.643 16.5732 127.867 16.2762C128.09 15.9792 128.202 15.5571 128.202 15.0098C128.202 14.4626 128.09 14.0421 127.867 13.7485C127.643 13.4515 127.323 13.303 126.906 13.303ZM135.275 12.9626C135.735 13.5399 135.966 14.2223 135.966 15.0098C135.966 15.8107 135.735 16.4964 135.275 17.0671C134.814 17.6343 134.115 17.918 133.177 17.918C132.24 17.918 131.541 17.6343 131.08 17.0671C130.62 16.4964 130.389 15.8107 130.389 15.0098C130.389 14.2223 130.62 13.5399 131.08 12.9626C131.541 12.3853 132.24 12.0967 133.177 12.0967C134.115 12.0967 134.814 12.3853 135.275 12.9626ZM133.172 13.303C132.755 13.303 132.433 13.4515 132.206 13.7485C131.983 14.0421 131.871 14.4626 131.871 15.0098C131.871 15.5571 131.983 15.9792 132.206 16.2762C132.433 16.5732 132.755 16.7217 133.172 16.7217C133.59 16.7217 133.91 16.5732 134.134 16.2762C134.357 15.9792 134.469 15.5571 134.469 15.0098C134.469 14.4626 134.357 14.0421 134.134 13.7485C133.91 13.4515 133.59 13.303 133.172 13.303ZM141.997 17.7278H140.275L138.969 15.3952L138.378 16.0109V17.7278H136.977V10.3748H138.378V14.3491L140.155 12.2969H141.922L140.015 14.3841L141.997 17.7278Z" fill="white"/>
<defs>
<clipPath id="clip0_129_1329">
<rect width="12.3014" height="12.3014" fill="white" transform="translate(13.7345 7.72778)"/>
</clipPath>
</defs>
</svg>
