<svg width="257" height="33" viewBox="0 0 257 33" fill="none" xmlns="http://www.w3.org/2000/svg">
<g filter="url(#filter0_dd_129_1313)">
<rect x="1.89832" y="2.03943" width="253.559" height="27.6781" rx="13.8391" fill="white"/>
<rect width="12.3014" height="12.3014" transform="translate(15.6328 9.72778)" fill="white"/>
<path fill-rule="evenodd" clip-rule="evenodd" d="M27.4421 16.0124C27.4421 15.5945 27.4046 15.1926 27.3349 14.8068H21.7835V17.0868H24.9557C24.8191 17.8236 24.4038 18.4479 23.7795 18.8659V20.3448H25.6845C26.7991 19.3187 27.4421 17.8076 27.4421 16.0124Z" fill="#4285F4"/>
<path fill-rule="evenodd" clip-rule="evenodd" d="M21.7835 21.7728C23.3749 21.7728 24.7092 21.2449 25.6845 20.3447L23.7795 18.8657C23.2517 19.2194 22.5765 19.4284 21.7835 19.4284C20.2482 19.4284 18.9488 18.3915 18.4853 16.9983H16.516V18.5255C17.4859 20.4519 19.4793 21.7728 21.7835 21.7728Z" fill="#34A853"/>
<path fill-rule="evenodd" clip-rule="evenodd" d="M18.4853 16.9985C18.3674 16.6448 18.3004 16.2671 18.3004 15.8786C18.3004 15.4901 18.3674 15.1123 18.4853 14.7586V13.2314H16.516C16.1168 14.0272 15.8891 14.9274 15.8891 15.8786C15.8891 16.8297 16.1168 17.73 16.516 18.5257L18.4853 16.9985Z" fill="#FBBC05"/>
<path fill-rule="evenodd" clip-rule="evenodd" d="M21.7835 12.3285C22.6489 12.3285 23.4259 12.6259 24.0367 13.21L25.7274 11.5194C24.7066 10.5682 23.3723 9.98413 21.7835 9.98413C19.4793 9.98413 17.4859 11.305 16.516 13.2314L18.4853 14.7586C18.9488 13.3654 20.2482 12.3285 21.7835 12.3285Z" fill="#EA4335"/>
<path d="M40.1975 17.8507C40.1975 17.7006 40.1741 17.5671 40.1274 17.4503C40.0841 17.3335 40.0056 17.2267 39.8922 17.13C39.7787 17.0332 39.6185 16.9397 39.4117 16.8497C39.2081 16.7562 38.9478 16.6611 38.6308 16.5643C38.2838 16.4576 37.9634 16.3391 37.6698 16.209C37.3794 16.0755 37.1258 15.922 36.9089 15.7485C36.692 15.5716 36.5235 15.3697 36.4034 15.1428C36.2832 14.9125 36.2232 14.6473 36.2232 14.3469C36.2232 14.0499 36.2849 13.7796 36.4084 13.536C36.5352 13.2924 36.7137 13.0822 36.944 12.9054C37.1776 12.7252 37.4529 12.5867 37.7699 12.4899C38.0869 12.3898 38.4373 12.3397 38.821 12.3397C39.3616 12.3397 39.8271 12.4399 40.2175 12.6401C40.6113 12.8403 40.9133 13.1089 41.1235 13.4459C41.3371 13.783 41.4439 14.1551 41.4439 14.5622H40.1975C40.1975 14.3219 40.1458 14.11 40.0423 13.9265C39.9422 13.7396 39.7887 13.5928 39.5818 13.486C39.3783 13.3792 39.1197 13.3258 38.806 13.3258C38.509 13.3258 38.2621 13.3709 38.0652 13.461C37.8683 13.5511 37.7215 13.6729 37.6247 13.8264C37.5279 13.9799 37.4795 14.1534 37.4795 14.3469C37.4795 14.4837 37.5113 14.6089 37.5747 14.7223C37.6381 14.8325 37.7348 14.9359 37.865 15.0327C37.9951 15.1261 38.1586 15.2145 38.3555 15.298C38.5524 15.3814 38.7843 15.4615 39.0513 15.5382C39.455 15.6584 39.8071 15.7918 40.1074 15.9387C40.4077 16.0821 40.658 16.2457 40.8582 16.4292C41.0584 16.6127 41.2086 16.8213 41.3087 17.0549C41.4088 17.2851 41.4589 17.5471 41.4589 17.8407C41.4589 18.1477 41.3971 18.4247 41.2737 18.6716C41.1502 18.9152 40.9734 19.1238 40.7431 19.2973C40.5162 19.4675 40.2426 19.5993 39.9222 19.6927C39.6052 19.7828 39.2515 19.8279 38.8611 19.8279C38.5107 19.8279 38.1653 19.7812 37.8249 19.6877C37.4879 19.5943 37.1809 19.4525 36.9039 19.2623C36.627 19.0687 36.4067 18.8285 36.2432 18.5415C36.0797 18.2512 35.9979 17.9125 35.9979 17.5254H37.2543C37.2543 17.7623 37.2943 17.9642 37.3744 18.131C37.4579 18.2979 37.573 18.4347 37.7198 18.5415C37.8666 18.6449 38.0368 18.7217 38.2304 18.7717C38.4272 18.8218 38.6375 18.8468 38.8611 18.8468C39.1547 18.8468 39.4 18.8051 39.5969 18.7217C39.7971 18.6383 39.9472 18.5215 40.0473 18.3713C40.1475 18.2211 40.1975 18.0476 40.1975 17.8507ZM43.7414 14.3119V19.7278H42.53V14.3119H43.7414ZM42.45 12.8903C42.45 12.7068 42.51 12.555 42.6302 12.4348C42.7536 12.3114 42.9238 12.2496 43.1407 12.2496C43.3543 12.2496 43.5228 12.3114 43.6463 12.4348C43.7697 12.555 43.8315 12.7068 43.8315 12.8903C43.8315 13.0705 43.7697 13.2207 43.6463 13.3408C43.5228 13.461 43.3543 13.521 43.1407 13.521C42.9238 13.521 42.7536 13.461 42.6302 13.3408C42.51 13.2207 42.45 13.0705 42.45 12.8903ZM48.5316 14.3119H49.6278V19.5776C49.6278 20.0648 49.5243 20.4786 49.3174 20.819C49.1105 21.1593 48.8219 21.418 48.4515 21.5948C48.0811 21.775 47.6523 21.8651 47.1651 21.8651C46.9582 21.8651 46.7279 21.8351 46.4743 21.775C46.2241 21.7149 45.9805 21.6182 45.7435 21.4847C45.51 21.3546 45.3147 21.1827 45.1579 20.9691L45.7235 20.2584C45.9171 20.4886 46.1306 20.6571 46.3642 20.7639C46.5978 20.8707 46.8431 20.9241 47.1 20.9241C47.377 20.9241 47.6122 20.8724 47.8058 20.7689C48.0027 20.6688 48.1545 20.5203 48.2613 20.3234C48.3681 20.1266 48.4215 19.8863 48.4215 19.6026V15.5382L48.5316 14.3119ZM44.8526 17.0799V16.9748C44.8526 16.5643 44.9026 16.1906 45.0027 15.8536C45.1028 15.5132 45.2463 15.2212 45.4332 14.9776C45.6201 14.7307 45.847 14.5421 46.1139 14.412C46.3809 14.2785 46.6829 14.2118 47.0199 14.2118C47.3703 14.2118 47.669 14.2752 47.9159 14.402C48.1662 14.5288 48.3747 14.7107 48.5416 14.9476C48.7084 15.1812 48.8386 15.4615 48.932 15.7885C49.0288 16.1122 49.1005 16.4726 49.1472 16.8697V17.205C49.1039 17.5921 49.0305 17.9458 48.927 18.2662C48.8236 18.5865 48.6867 18.8635 48.5166 19.0971C48.3464 19.3307 48.1361 19.5109 47.8859 19.6377C47.6389 19.7645 47.347 19.8279 47.0099 19.8279C46.6796 19.8279 46.3809 19.7595 46.1139 19.6227C45.8503 19.4859 45.6234 19.294 45.4332 19.047C45.2463 18.8001 45.1028 18.5098 45.0027 18.1761C44.9026 17.8391 44.8526 17.4737 44.8526 17.0799ZM46.0589 16.9748V17.0799C46.0589 17.3268 46.0822 17.5571 46.129 17.7707C46.179 17.9842 46.2541 18.1728 46.3542 18.3363C46.4577 18.4964 46.5878 18.6232 46.7446 18.7167C46.9048 18.8068 47.0933 18.8518 47.3103 18.8518C47.5939 18.8518 47.8258 18.7918 48.006 18.6716C48.1895 18.5515 48.3297 18.3897 48.4265 18.1861C48.5266 17.9792 48.5967 17.749 48.6367 17.4954V16.5894C48.6167 16.3925 48.575 16.209 48.5116 16.0388C48.4515 15.8686 48.3697 15.7201 48.2663 15.5933C48.1628 15.4631 48.0327 15.363 47.8759 15.293C47.719 15.2195 47.5338 15.1828 47.3203 15.1828C47.1034 15.1828 46.9148 15.2296 46.7546 15.323C46.5945 15.4164 46.4627 15.5449 46.3592 15.7084C46.2591 15.8719 46.184 16.0621 46.134 16.279C46.0839 16.4959 46.0589 16.7279 46.0589 16.9748ZM52.0754 15.4681V19.7278H50.8691V14.3119H52.0054L52.0754 15.4681ZM51.8602 16.8196L51.4698 16.8146C51.4731 16.4309 51.5265 16.0788 51.63 15.7585C51.7367 15.4381 51.8836 15.1628 52.0704 14.9326C52.2606 14.7023 52.4876 14.5255 52.7512 14.402C53.0148 14.2752 53.3084 14.2118 53.6321 14.2118C53.8924 14.2118 54.1277 14.2485 54.3379 14.3219C54.5515 14.392 54.7333 14.5071 54.8835 14.6673C55.037 14.8274 55.1538 15.036 55.2339 15.293C55.314 15.5466 55.354 15.8586 55.354 16.229V19.7278H54.1427V16.224C54.1427 15.9637 54.1043 15.7585 54.0276 15.6083C53.9541 15.4548 53.8457 15.3463 53.7022 15.2829C53.5621 15.2162 53.3869 15.1828 53.1766 15.1828C52.9697 15.1828 52.7845 15.2262 52.621 15.313C52.4575 15.3997 52.319 15.5182 52.2056 15.6684C52.0955 15.8185 52.0104 15.9921 51.9503 16.1889C51.8902 16.3858 51.8602 16.596 51.8602 16.8196ZM60.5997 12.4399V19.7278H59.3433V12.4399H60.5997ZM63.2376 15.4681V19.7278H62.0313V14.3119H63.1675L63.2376 15.4681ZM63.0224 16.8196L62.6319 16.8146C62.6353 16.4309 62.6887 16.0788 62.7921 15.7585C62.8989 15.4381 63.0457 15.1628 63.2326 14.9326C63.4228 14.7023 63.6497 14.5255 63.9133 14.402C64.1769 14.2752 64.4706 14.2118 64.7943 14.2118C65.0546 14.2118 65.2898 14.2485 65.5001 14.3219C65.7136 14.392 65.8955 14.5071 66.0456 14.6673C66.1991 14.8274 66.3159 15.036 66.396 15.293C66.4761 15.5466 66.5162 15.8586 66.5162 16.229V19.7278H65.3048V16.224C65.3048 15.9637 65.2665 15.7585 65.1897 15.6083C65.1163 15.4548 65.0078 15.3463 64.8644 15.2829C64.7242 15.2162 64.549 15.1828 64.3388 15.1828C64.1319 15.1828 63.9467 15.2262 63.7832 15.313C63.6197 15.3997 63.4812 15.5182 63.3677 15.6684C63.2576 15.8185 63.1725 15.9921 63.1125 16.1889C63.0524 16.3858 63.0224 16.596 63.0224 16.8196ZM71.7719 18.5265L73.0232 14.3119H73.7941L73.5838 15.5733L72.3225 19.7278H71.6317L71.7719 18.5265ZM71.0361 14.3119L72.0121 18.5465L72.0922 19.7278H71.3214L69.8548 14.3119H71.0361ZM74.9654 18.4964L75.9114 14.3119H77.0877L75.6261 19.7278H74.8552L74.9654 18.4964ZM73.9242 14.3119L75.1606 18.4764L75.3157 19.7278H74.625L73.3486 15.5683L73.1384 14.3119H73.9242ZM79.2 14.3119V19.7278H77.9886V14.3119H79.2ZM77.9086 12.8903C77.9086 12.7068 77.9686 12.555 78.0888 12.4348C78.2122 12.3114 78.3824 12.2496 78.5993 12.2496C78.8129 12.2496 78.9814 12.3114 79.1049 12.4348C79.2283 12.555 79.2901 12.7068 79.2901 12.8903C79.2901 13.0705 79.2283 13.2207 79.1049 13.3408C78.9814 13.461 78.8129 13.521 78.5993 13.521C78.3824 13.521 78.2122 13.461 78.0888 13.3408C77.9686 13.2207 77.9086 13.0705 77.9086 12.8903ZM83.0041 14.3119V15.1928H79.9508V14.3119H83.0041ZM80.8317 12.9854H82.0381V18.2312C82.0381 18.398 82.0614 18.5265 82.1081 18.6166C82.1582 18.7033 82.2266 18.7617 82.3134 18.7918C82.4001 18.8218 82.5019 18.8368 82.6187 18.8368C82.7021 18.8368 82.7822 18.8318 82.8589 18.8218C82.9357 18.8118 82.9974 18.8018 83.0441 18.7918L83.0492 19.7128C82.949 19.7428 82.8323 19.7695 82.6988 19.7929C82.5686 19.8162 82.4185 19.8279 82.2483 19.8279C81.9713 19.8279 81.726 19.7795 81.5125 19.6827C81.2989 19.5826 81.1321 19.4208 81.0119 19.1972C80.8918 18.9736 80.8317 18.6766 80.8317 18.3062V12.9854ZM85.1264 12.0394V19.7278H83.9251V12.0394H85.1264ZM84.9162 16.8196L84.5258 16.8146C84.5291 16.4409 84.5808 16.0955 84.6809 15.7785C84.7844 15.4615 84.9279 15.1862 85.1114 14.9526C85.2983 14.7157 85.5218 14.5338 85.7821 14.407C86.0424 14.2768 86.3311 14.2118 86.6481 14.2118C86.915 14.2118 87.1553 14.2485 87.3689 14.3219C87.5858 14.3953 87.7726 14.5138 87.9295 14.6773C88.0863 14.8375 88.2048 15.0477 88.2849 15.308C88.3683 15.5649 88.41 15.8786 88.41 16.249V19.7278H87.1987V16.239C87.1987 15.9787 87.1603 15.7718 87.0835 15.6183C87.0101 15.4648 86.9017 15.3547 86.7582 15.288C86.6147 15.2179 86.4395 15.1828 86.2326 15.1828C86.0157 15.1828 85.8238 15.2262 85.657 15.313C85.4935 15.3997 85.3567 15.5182 85.2465 15.6684C85.1364 15.8185 85.053 15.9921 84.9963 16.1889C84.9429 16.3858 84.9162 16.596 84.9162 16.8196ZM97.9003 16.0037V18.7868C97.7969 18.9236 97.635 19.0737 97.4148 19.2372C97.1979 19.3974 96.9092 19.5359 96.5488 19.6527C96.1885 19.7695 95.7396 19.8279 95.2024 19.8279C94.7452 19.8279 94.3264 19.7511 93.946 19.5976C93.5656 19.4408 93.2369 19.2122 92.9599 18.9119C92.6863 18.6116 92.4744 18.2462 92.3243 17.8157C92.1741 17.3819 92.099 16.888 92.099 16.3341V15.8285C92.099 15.2779 92.1674 14.7874 92.3042 14.3569C92.4444 13.9231 92.6446 13.5561 92.9049 13.2557C93.1652 12.9554 93.4788 12.7285 93.8459 12.575C94.2163 12.4182 94.6351 12.3397 95.1023 12.3397C95.6996 12.3397 96.1935 12.4399 96.5839 12.6401C96.9777 12.8369 97.2813 13.1106 97.4949 13.461C97.7084 13.8113 97.8436 14.2118 97.9003 14.6623H96.669C96.6289 14.4087 96.5505 14.1817 96.4337 13.9815C96.3203 13.7813 96.1568 13.6245 95.9432 13.511C95.733 13.3942 95.4593 13.3358 95.1223 13.3358C94.832 13.3358 94.5767 13.3909 94.3565 13.501C94.1362 13.6111 93.9527 13.773 93.8059 13.9865C93.6624 14.2001 93.5539 14.4604 93.4805 14.7674C93.4071 15.0744 93.3704 15.4248 93.3704 15.8185V16.3341C93.3704 16.7345 93.4121 17.0899 93.4955 17.4002C93.5823 17.7106 93.7058 17.9725 93.8659 18.1861C94.0294 18.3997 94.228 18.5615 94.4616 18.6716C94.6952 18.7784 94.9588 18.8318 95.2524 18.8318C95.5394 18.8318 95.7747 18.8084 95.9582 18.7617C96.1417 18.7117 96.2869 18.6533 96.3937 18.5865C96.5038 18.5165 96.5889 18.4497 96.649 18.3863V16.9397H95.1323V16.0037H97.9003ZM98.9415 17.0799V16.9648C98.9415 16.5744 98.9982 16.2123 99.1116 15.8786C99.2251 15.5416 99.3886 15.2496 99.6022 15.0026C99.8191 14.7524 100.083 14.5588 100.393 14.422C100.707 14.2819 101.06 14.2118 101.454 14.2118C101.851 14.2118 102.205 14.2819 102.515 14.422C102.829 14.5588 103.094 14.7524 103.311 15.0026C103.528 15.2496 103.693 15.5416 103.807 15.8786C103.92 16.2123 103.977 16.5744 103.977 16.9648V17.0799C103.977 17.4703 103.92 17.8324 103.807 18.1661C103.693 18.4998 103.528 18.7918 103.311 19.042C103.094 19.289 102.831 19.4825 102.52 19.6227C102.21 19.7595 101.858 19.8279 101.464 19.8279C101.067 19.8279 100.712 19.7595 100.398 19.6227C100.088 19.4825 99.8241 19.289 99.6072 19.042C99.3903 18.7918 99.2251 18.4998 99.1116 18.1661C98.9982 17.8324 98.9415 17.4703 98.9415 17.0799ZM100.148 16.9648V17.0799C100.148 17.3235 100.173 17.5538 100.223 17.7707C100.273 17.9876 100.351 18.1778 100.458 18.3413C100.565 18.5048 100.702 18.6333 100.869 18.7267C101.035 18.8201 101.234 18.8668 101.464 18.8668C101.688 18.8668 101.881 18.8201 102.045 18.7267C102.212 18.6333 102.348 18.5048 102.455 18.3413C102.562 18.1778 102.64 17.9876 102.691 17.7707C102.744 17.5538 102.771 17.3235 102.771 17.0799V16.9648C102.771 16.7245 102.744 16.4976 102.691 16.284C102.64 16.0671 102.56 15.8753 102.45 15.7084C102.343 15.5416 102.207 15.4114 102.04 15.318C101.876 15.2212 101.681 15.1728 101.454 15.1728C101.227 15.1728 101.03 15.2212 100.864 15.318C100.7 15.4114 100.565 15.5416 100.458 15.7084C100.351 15.8753 100.273 16.0671 100.223 16.284C100.173 16.4976 100.148 16.7245 100.148 16.9648ZM104.758 17.0799V16.9648C104.758 16.5744 104.815 16.2123 104.928 15.8786C105.041 15.5416 105.205 15.2496 105.418 15.0026C105.635 14.7524 105.899 14.5588 106.209 14.422C106.523 14.2819 106.877 14.2118 107.271 14.2118C107.668 14.2118 108.021 14.2819 108.332 14.422C108.645 14.5588 108.911 14.7524 109.128 15.0026C109.344 15.2496 109.51 15.5416 109.623 15.8786C109.737 16.2123 109.793 16.5744 109.793 16.9648V17.0799C109.793 17.4703 109.737 17.8324 109.623 18.1661C109.51 18.4998 109.344 18.7918 109.128 19.042C108.911 19.289 108.647 19.4825 108.337 19.6227C108.026 19.7595 107.674 19.8279 107.281 19.8279C106.883 19.8279 106.528 19.7595 106.214 19.6227C105.904 19.4825 105.64 19.289 105.424 19.042C105.207 18.7918 105.041 18.4998 104.928 18.1661C104.815 17.8324 104.758 17.4703 104.758 17.0799ZM105.964 16.9648V17.0799C105.964 17.3235 105.989 17.5538 106.039 17.7707C106.089 17.9876 106.168 18.1778 106.274 18.3413C106.381 18.5048 106.518 18.6333 106.685 18.7267C106.852 18.8201 107.05 18.8668 107.281 18.8668C107.504 18.8668 107.698 18.8201 107.861 18.7267C108.028 18.6333 108.165 18.5048 108.272 18.3413C108.378 18.1778 108.457 17.9876 108.507 17.7707C108.56 17.5538 108.587 17.3235 108.587 17.0799V16.9648C108.587 16.7245 108.56 16.4976 108.507 16.284C108.457 16.0671 108.377 15.8753 108.267 15.7084C108.16 15.5416 108.023 15.4114 107.856 15.318C107.693 15.2212 107.497 15.1728 107.271 15.1728C107.044 15.1728 106.847 15.2212 106.68 15.318C106.516 15.4114 106.381 15.5416 106.274 15.7084C106.168 15.8753 106.089 16.0671 106.039 16.284C105.989 16.4976 105.964 16.7245 105.964 16.9648ZM114.273 14.3119H115.369V19.5776C115.369 20.0648 115.266 20.4786 115.059 20.819C114.852 21.1593 114.563 21.418 114.193 21.5948C113.823 21.775 113.394 21.8651 112.907 21.8651C112.7 21.8651 112.47 21.8351 112.216 21.775C111.966 21.7149 111.722 21.6182 111.485 21.4847C111.252 21.3546 111.056 21.1827 110.899 20.9691L111.465 20.2584C111.659 20.4886 111.872 20.6571 112.106 20.7639C112.339 20.8707 112.585 20.9241 112.842 20.9241C113.119 20.9241 113.354 20.8724 113.547 20.7689C113.744 20.6688 113.896 20.5203 114.003 20.3234C114.11 20.1266 114.163 19.8863 114.163 19.6026V15.5382L114.273 14.3119ZM110.594 17.0799V16.9748C110.594 16.5643 110.644 16.1906 110.744 15.8536C110.844 15.5132 110.988 15.2212 111.175 14.9776C111.362 14.7307 111.589 14.5421 111.856 14.412C112.122 14.2785 112.424 14.2118 112.761 14.2118C113.112 14.2118 113.411 14.2752 113.657 14.402C113.908 14.5288 114.116 14.7107 114.283 14.9476C114.45 15.1812 114.58 15.4615 114.674 15.7885C114.77 16.1122 114.842 16.4726 114.889 16.8697V17.205C114.845 17.5921 114.772 17.9458 114.669 18.2662C114.565 18.5865 114.428 18.8635 114.258 19.0971C114.088 19.3307 113.878 19.5109 113.627 19.6377C113.381 19.7645 113.089 19.8279 112.751 19.8279C112.421 19.8279 112.122 19.7595 111.856 19.6227C111.592 19.4859 111.365 19.294 111.175 19.047C110.988 18.8001 110.844 18.5098 110.744 18.1761C110.644 17.8391 110.594 17.4737 110.594 17.0799ZM111.8 16.9748V17.0799C111.8 17.3268 111.824 17.5571 111.871 17.7707C111.921 17.9842 111.996 18.1728 112.096 18.3363C112.199 18.4964 112.329 18.6232 112.486 18.7167C112.646 18.8068 112.835 18.8518 113.052 18.8518C113.335 18.8518 113.567 18.7918 113.748 18.6716C113.931 18.5515 114.071 18.3897 114.168 18.1861C114.268 17.9792 114.338 17.749 114.378 17.4954V16.5894C114.358 16.3925 114.317 16.209 114.253 16.0388C114.193 15.8686 114.111 15.7201 114.008 15.5933C113.904 15.4631 113.774 15.363 113.617 15.293C113.461 15.2195 113.275 15.1828 113.062 15.1828C112.845 15.1828 112.656 15.2296 112.496 15.323C112.336 15.4164 112.204 15.5449 112.101 15.7084C112.001 15.8719 111.926 16.0621 111.876 16.279C111.825 16.4959 111.8 16.7279 111.8 16.9748ZM117.912 12.0394V19.7278H116.701V12.0394H117.912ZM121.621 19.8279C121.221 19.8279 120.859 19.7628 120.535 19.6327C120.215 19.4992 119.941 19.314 119.714 19.0771C119.49 18.8402 119.319 18.5615 119.199 18.2412C119.078 17.9208 119.018 17.5754 119.018 17.205V17.0048C119.018 16.581 119.08 16.1973 119.204 15.8536C119.327 15.5099 119.499 15.2162 119.719 14.9726C119.939 14.7257 120.2 14.5371 120.5 14.407C120.8 14.2768 121.126 14.2118 121.476 14.2118C121.863 14.2118 122.202 14.2768 122.492 14.407C122.782 14.5371 123.023 14.7207 123.213 14.9576C123.406 15.1912 123.55 15.4698 123.643 15.7935C123.74 16.1172 123.789 16.4742 123.789 16.8647V17.3802H119.604V16.5143H122.597V16.4192C122.591 16.2023 122.547 15.9987 122.467 15.8085C122.39 15.6183 122.272 15.4648 122.112 15.348C121.952 15.2312 121.738 15.1728 121.471 15.1728C121.271 15.1728 121.092 15.2162 120.935 15.303C120.782 15.3864 120.653 15.5082 120.55 15.6684C120.447 15.8285 120.366 16.0221 120.31 16.249C120.256 16.4726 120.23 16.7245 120.23 17.0048V17.205C120.23 17.442 120.261 17.6622 120.325 17.8658C120.391 18.066 120.488 18.2412 120.615 18.3913C120.742 18.5415 120.895 18.66 121.076 18.7467C121.256 18.8301 121.461 18.8719 121.691 18.8719C121.982 18.8719 122.24 18.8135 122.467 18.6967C122.694 18.5799 122.891 18.4147 123.058 18.2011L123.693 18.8168C123.577 18.987 123.425 19.1505 123.238 19.3073C123.051 19.4608 122.822 19.586 122.552 19.6827C122.285 19.7795 121.975 19.8279 121.621 19.8279Z" fill="black" fill-opacity="0.54"/>
</g>
<defs>
<filter id="filter0_dd_129_1313" x="0.360642" y="0.501755" width="256.635" height="31.7786" filterUnits="userSpaceOnUse" color-interpolation-filters="sRGB">
<feFlood flood-opacity="0" result="BackgroundImageFix"/>
<feColorMatrix in="SourceAlpha" type="matrix" values="0 0 0 0 0 0 0 0 0 0 0 0 0 0 0 0 0 0 127 0" result="hardAlpha"/>
<feOffset dy="1.02512"/>
<feGaussianBlur stdDeviation="0.768837"/>
<feColorMatrix type="matrix" values="0 0 0 0 0 0 0 0 0 0 0 0 0 0 0 0 0 0 0.168 0"/>
<feBlend mode="normal" in2="BackgroundImageFix" result="effect1_dropShadow_129_1313"/>
<feColorMatrix in="SourceAlpha" type="matrix" values="0 0 0 0 0 0 0 0 0 0 0 0 0 0 0 0 0 0 127 0" result="hardAlpha"/>
<feOffset/>
<feGaussianBlur stdDeviation="0.768837"/>
<feColorMatrix type="matrix" values="0 0 0 0 0 0 0 0 0 0 0 0 0 0 0 0 0 0 0.084 0"/>
<feBlend mode="normal" in2="effect1_dropShadow_129_1313" result="effect2_dropShadow_129_1313"/>
<feBlend mode="normal" in="SourceGraphic" in2="effect2_dropShadow_129_1313" result="shape"/>
</filter>
</defs>
</svg>
