<svg width="10" height="11" viewBox="0 0 10 11" fill="none" xmlns="http://www.w3.org/2000/svg">
<path d="M4.88352 3.33563C4.21786 3.33563 3.57947 3.60006 3.10878 4.07075C2.63809 4.54145 2.37366 5.17984 2.37366 5.8455C2.37366 6.51115 2.63809 7.14955 3.10878 7.62024C3.57947 8.09093 4.21786 8.35536 4.88352 8.35536C5.54918 8.35536 6.18757 8.09093 6.65826 7.62024C7.12895 7.14955 7.39338 6.51115 7.39338 5.8455C7.39338 5.17984 7.12895 4.54145 6.65826 4.07075C6.18757 3.60006 5.54918 3.33563 4.88352 3.33563ZM4.88352 7.4755C4.45107 7.4755 4.03634 7.30371 3.73055 6.99792C3.42477 6.69214 3.25298 6.2774 3.25298 5.84495C3.25298 5.41251 3.42477 4.99777 3.73055 4.69199C4.03634 4.3862 4.45107 4.21441 4.88352 4.21441C5.31597 4.21441 5.7307 4.3862 6.03649 4.69199C6.34228 4.99777 6.51406 5.41251 6.51406 5.84495C6.51406 6.2774 6.34228 6.69214 6.03649 6.99792C5.7307 7.30371 5.31597 7.4755 4.88352 7.4755Z" fill="white"/>
<path d="M7.49272 3.82846C7.81588 3.82846 8.07785 3.56649 8.07785 3.24333C8.07785 2.92017 7.81588 2.6582 7.49272 2.6582C7.16956 2.6582 6.90759 2.92017 6.90759 3.24333C6.90759 3.56649 7.16956 3.82846 7.49272 3.82846Z" fill="white"/>
<path d="M9.51566 2.64843C9.39001 2.32394 9.19798 2.02926 8.95189 1.78326C8.70579 1.53725 8.41103 1.34534 8.0865 1.21981C7.70673 1.07725 7.30552 1.00016 6.89996 0.991835C6.37725 0.969038 6.2117 0.962524 4.8862 0.962524C3.56071 0.962524 3.39081 0.962524 2.87245 0.991835C2.46719 0.999736 2.06627 1.07684 1.68699 1.21981C1.36237 1.34519 1.06754 1.53705 0.821424 1.78308C0.575306 2.0291 0.383334 2.32386 0.257826 2.64843C0.115237 3.02818 0.0383289 3.42942 0.0303963 3.83497C0.00705628 4.35714 0 4.52269 0 5.84873C0 7.17422 -4.04411e-09 7.34303 0.0303963 7.86248C0.0385381 8.26849 0.115072 8.66907 0.257826 9.04956C0.383687 9.37402 0.575845 9.66866 0.822022 9.91465C1.0682 10.1606 1.36298 10.3526 1.68754 10.4782C2.0661 10.6265 2.46719 10.7091 2.87353 10.7224C3.39624 10.7452 3.56179 10.7523 4.88729 10.7523C6.21278 10.7523 6.38268 10.7523 6.90104 10.7224C7.30656 10.7142 7.70775 10.6373 8.08758 10.495C8.41204 10.3692 8.7067 10.1771 8.95277 9.93104C9.19885 9.68497 9.39092 9.3903 9.51675 9.06585C9.6595 8.68589 9.73604 8.28531 9.74418 7.87931C9.76752 7.35714 9.77458 7.19159 9.77458 5.86555C9.77458 4.53951 9.77458 4.37125 9.74418 3.8518C9.73786 3.44051 9.66055 3.03341 9.51566 2.64843ZM8.85454 7.82231C8.85104 8.13513 8.79395 8.44502 8.68574 8.73854C8.60422 8.94962 8.47943 9.14129 8.31939 9.30124C8.15935 9.46119 7.9676 9.58587 7.75648 9.66726C7.46621 9.77497 7.15961 9.83207 6.85002 9.83607C6.33437 9.85995 6.1889 9.86592 4.86666 9.86592C3.54334 9.86592 3.40818 9.86592 2.88276 9.83607C2.57333 9.83228 2.26687 9.77517 1.97684 9.66726C1.76499 9.58637 1.57247 9.46192 1.41174 9.30194C1.25101 9.14196 1.12566 8.95002 1.04379 8.73854C0.937099 8.44818 0.880033 8.14193 0.874978 7.83263C0.851638 7.31697 0.846211 7.17151 0.846211 5.84927C0.846211 4.52649 0.846211 4.39133 0.874978 3.86537C0.878487 3.55273 0.935584 3.24302 1.04379 2.94968C1.20934 2.52142 1.54858 2.18435 1.97684 2.02042C2.26701 1.91303 2.57338 1.85594 2.88276 1.85162C3.39896 1.82828 3.54388 1.82176 4.86666 1.82176C6.18944 1.82176 6.32514 1.82176 6.85002 1.85162C7.15963 1.85534 7.46628 1.91245 7.75648 2.02042C7.96759 2.10199 8.15931 2.22679 8.31934 2.38682C8.47937 2.54685 8.60417 2.73857 8.68574 2.94968C8.79242 3.24005 8.84949 3.54629 8.85454 3.8556C8.87788 4.37179 8.88385 4.51672 8.88385 5.8395C8.88385 7.16174 8.88385 7.30395 8.86052 7.82286H8.85454V7.82231Z" fill="white"/>
</svg>
