<svg width="101" height="47" viewBox="0 0 101 47" fill="none" xmlns="http://www.w3.org/2000/svg">
<rect x="0.5" y="0.5" width="100" height="46" rx="23" stroke="#336DFF"/>
<g clip-path="url(#clip0_7_117)">
<path d="M34.5 17.5C32.7553 17.5 31.3359 18.9194 31.3359 20.6641C31.3359 22.4087 32.7553 23.8281 34.5 23.8281C36.2447 23.8281 37.6641 22.4087 37.6641 20.6641C37.6641 18.9194 36.2447 17.5 34.5 17.5Z" fill="#336DFF"/>
<path d="M38.4367 25.8952C37.5705 25.0156 36.4221 24.5312 35.2031 24.5312H33.7969C32.5779 24.5312 31.4295 25.0156 30.5633 25.8952C29.7013 26.7704 29.2266 27.9258 29.2266 29.1484C29.2266 29.3426 29.384 29.5 29.5781 29.5H39.4219C39.616 29.5 39.7734 29.3426 39.7734 29.1484C39.7734 27.9258 39.2987 26.7704 38.4367 25.8952Z" fill="#336DFF"/>
</g>
<path d="M45.6789 27V19.1932H46.6157V26.2528H50.2515V27H45.6789ZM53.7741 27.1338C53.2537 27.1338 52.7853 27.0149 52.3689 26.7769C51.9525 26.5316 51.6254 26.1896 51.3875 25.7509C51.1495 25.3048 51.0306 24.7881 51.0306 24.2007C51.0306 23.5985 51.1495 23.078 51.3875 22.6394C51.6328 22.1933 51.9637 21.8512 52.38 21.6133C52.8038 21.368 53.276 21.2453 53.7964 21.2453C54.3317 21.2453 54.8039 21.368 55.2128 21.6133C55.6291 21.8512 55.9563 22.1933 56.1942 22.6394C56.4396 23.078 56.5622 23.5948 56.5622 24.1896C56.5622 24.7844 56.4396 25.3048 56.1942 25.7509C55.9489 26.1896 55.618 26.5316 55.2016 26.7769C54.7853 27.0149 54.3094 27.1338 53.7741 27.1338ZM53.7853 26.3308C54.105 26.3308 54.4024 26.2528 54.6775 26.0966C54.9526 25.9331 55.1756 25.6914 55.3466 25.3717C55.5176 25.052 55.6031 24.658 55.6031 24.1896C55.6031 23.7137 55.5176 23.3197 55.3466 23.0074C55.183 22.6877 54.9637 22.4498 54.6886 22.2936C54.421 22.1301 54.1236 22.0483 53.7964 22.0483C53.4841 22.0483 53.1867 22.1301 52.9042 22.2936C52.6291 22.4498 52.4061 22.6877 52.2351 23.0074C52.0715 23.3197 51.9897 23.7137 51.9897 24.1896C51.9897 24.658 52.0715 25.052 52.2351 25.3717C52.4061 25.6914 52.6254 25.9331 52.8931 26.0966C53.1682 26.2528 53.4656 26.3308 53.7853 26.3308ZM59.8555 29.5874C59.3499 29.5874 58.9001 29.5205 58.506 29.3866C58.1194 29.2602 57.8183 29.0632 57.6027 28.7956C57.387 28.5279 57.2792 28.197 57.2792 27.803C57.2792 27.632 57.3127 27.4498 57.3796 27.2565C57.454 27.0632 57.5766 26.8736 57.7476 26.6877C57.9261 26.5019 58.1752 26.3346 58.4949 26.1859L59.1417 26.5651C58.7477 26.7286 58.4911 26.9145 58.3722 27.1227C58.2532 27.3383 58.1937 27.5353 58.1937 27.7138C58.1937 27.9591 58.2644 28.1636 58.4056 28.3272C58.5469 28.4907 58.7439 28.6134 58.9967 28.6952C59.2495 28.777 59.5358 28.8179 59.8555 28.8179C60.1752 28.8179 60.4503 28.7695 60.6808 28.6729C60.9112 28.5837 61.0897 28.4573 61.2161 28.2937C61.3425 28.1376 61.4057 27.948 61.4057 27.7249C61.4057 27.4647 61.309 27.2454 61.1157 27.0669C60.9224 26.8959 60.5544 26.7955 60.0116 26.7658C59.5729 26.7361 59.2049 26.6952 58.9075 26.6431C58.6101 26.5911 58.3647 26.5316 58.1714 26.4647C57.9781 26.3903 57.8146 26.3085 57.6807 26.2193C57.5543 26.1301 57.4391 26.0372 57.335 25.9405V25.684L58.4168 24.6134L59.2309 24.9033L58.1157 25.9071L58.2607 25.5167C58.3424 25.5762 58.4205 25.632 58.4949 25.684C58.5692 25.736 58.6696 25.7807 58.796 25.8178C58.9224 25.855 59.0971 25.8885 59.3201 25.9182C59.5506 25.9479 59.8518 25.9777 60.2235 26.0074C60.7365 26.0446 61.1454 26.1338 61.4503 26.2751C61.7626 26.4164 61.9856 26.6059 62.1194 26.8439C62.2607 27.0818 62.3313 27.3643 62.3313 27.6915C62.3313 28.0112 62.2421 28.3123 62.0637 28.5948C61.8927 28.8848 61.625 29.1227 61.2607 29.3086C60.8964 29.4945 60.428 29.5874 59.8555 29.5874ZM59.8443 25.2379C59.3759 25.2379 58.9744 25.1487 58.6398 24.9702C58.3127 24.7918 58.0636 24.5539 57.8926 24.2565C57.7216 23.9516 57.6361 23.6133 57.6361 23.2416C57.6361 22.8698 57.7216 22.5353 57.8926 22.2379C58.0711 21.9405 58.3239 21.7025 58.651 21.5241C58.9781 21.3382 59.3759 21.2453 59.8443 21.2453C60.3127 21.2453 60.7105 21.3382 61.0376 21.5241C61.3648 21.7025 61.6139 21.9405 61.7849 22.2379C61.9559 22.5353 62.0414 22.8698 62.0414 23.2416C62.0414 23.6133 61.9559 23.9516 61.7849 24.2565C61.6139 24.5539 61.3648 24.7918 61.0376 24.9702C60.7105 25.1487 60.3127 25.2379 59.8443 25.2379ZM59.8443 24.4684C60.2458 24.4684 60.5618 24.3643 60.7923 24.1561C61.0228 23.9479 61.138 23.6431 61.138 23.2416C61.138 22.8475 61.0228 22.5464 60.7923 22.3382C60.5618 22.1301 60.2458 22.026 59.8443 22.026C59.4503 22.026 59.1306 22.1301 58.8852 22.3382C58.6473 22.5464 58.5283 22.8475 58.5283 23.2416C58.5283 23.6431 58.6473 23.9479 58.8852 24.1561C59.1231 24.3643 59.4428 24.4684 59.8443 24.4684ZM60.7588 22.1709L60.48 21.3791H62.7774V22.0817L60.7588 22.1709ZM63.9442 27V21.3791H64.881V27H63.9442ZM64.4126 20.1858C64.2267 20.1858 64.0706 20.1263 63.9442 20.0074C63.8252 19.881 63.7657 19.7248 63.7657 19.5389C63.7657 19.3531 63.8252 19.2044 63.9442 19.0928C64.0706 18.9739 64.2267 18.9144 64.4126 18.9144C64.591 18.9144 64.7434 18.9739 64.8698 19.0928C64.9962 19.2044 65.0594 19.3531 65.0594 19.5389C65.0594 19.7248 64.9962 19.881 64.8698 20.0074C64.7434 20.1263 64.591 20.1858 64.4126 20.1858ZM66.5342 27V21.3791H67.3818L67.4264 22.3605C67.6048 22.0111 67.8576 21.7397 68.1848 21.5464C68.5193 21.3457 68.8985 21.2453 69.3223 21.2453C69.761 21.2453 70.1402 21.3345 70.4599 21.5129C70.7796 21.684 71.0287 21.9479 71.2071 22.3048C71.3855 22.6542 71.4748 23.1003 71.4748 23.6431V27H70.538V23.7435C70.538 23.1784 70.4116 22.7546 70.1588 22.4721C69.9134 22.1895 69.564 22.0483 69.1104 22.0483C68.7982 22.0483 68.5193 22.1263 68.274 22.2825C68.0286 22.4312 67.8316 22.6505 67.6829 22.9405C67.5416 23.223 67.471 23.5762 67.471 24V27H66.5342Z" fill="#336DFF"/>
<defs>
<clipPath id="clip0_7_117">
<rect width="12" height="12" fill="white" transform="translate(28.5 17.5)"/>
</clipPath>
</defs>
</svg>
