<svg width="110" height="110" viewBox="0 0 110 110" fill="none" xmlns="http://www.w3.org/2000/svg">
<g filter="url(#filter0_d_18_2112)">
<rect x="14" y="14" width="80" height="80" rx="40" fill="#65EAD0"/>
<rect x="14.5" y="14.5" width="79" height="79" rx="39.5" stroke="white" stroke-opacity="0.3"/>
<path fill-rule="evenodd" clip-rule="evenodd" d="M70.1795 37.7528C65.9003 33.4685 60.2092 31.108 54.1463 31.1055C41.6529 31.1055 31.4852 41.2729 31.4802 53.7696C31.4785 57.7644 32.5221 61.664 34.5056 65.1012L31.29 76.8464L43.3057 73.6944C46.6165 75.5004 50.3439 76.4522 54.1371 76.4533H54.1466C66.6384 76.4533 76.8073 66.2849 76.8121 53.7878C76.8145 47.7312 74.4592 42.0368 70.1795 37.7528ZM54.1463 72.6254H54.1384C50.7581 72.6241 47.4429 71.7156 44.55 69.9994L43.8624 69.591L36.7321 71.4615L38.6353 64.5098L38.1872 63.797C36.3013 60.7975 35.3055 57.3306 35.3072 53.771C35.3111 43.3841 43.7624 34.9336 54.1539 34.9336C59.1858 34.9353 63.916 36.8974 67.4726 40.4583C71.0294 44.0192 72.9871 48.7525 72.9853 53.7864C72.9808 64.1741 64.5302 72.6254 54.1463 72.6254ZM64.4798 58.5159C63.9137 58.2323 61.1292 56.8627 60.6098 56.6733C60.0911 56.4844 59.7131 56.3902 59.336 56.957C58.9582 57.5238 57.8731 58.7996 57.5424 59.1773C57.2119 59.5554 56.8819 59.6028 56.3155 59.3191C55.749 59.0357 53.9244 58.4375 51.761 56.5081C50.0774 55.0064 48.941 53.1519 48.6103 52.5851C48.2803 52.0178 48.6076 51.7409 48.8589 51.4293C49.4719 50.668 50.0858 49.8698 50.2745 49.492C50.4636 49.114 50.3689 48.7831 50.2271 48.4998C50.0858 48.2164 48.9532 45.4288 48.4815 44.2945C48.0213 43.1906 47.5548 43.3397 47.2069 43.3224C46.8769 43.3059 46.4992 43.3026 46.1215 43.3026C45.744 43.3026 45.1305 43.4441 44.6111 44.0114C44.0921 44.5784 42.6292 45.9483 42.6292 48.736C42.6292 51.5236 44.6586 54.2165 44.9417 54.5946C45.2248 54.9727 48.9353 60.693 54.6165 63.1459C55.9676 63.7299 57.0224 64.0781 57.8452 64.3391C59.2019 64.7702 60.4361 64.7093 61.4123 64.5636C62.5005 64.4009 64.7626 63.1933 65.235 61.8706C65.7068 60.5475 65.7068 59.4138 65.565 59.1773C65.4237 58.9412 65.046 58.7996 64.4798 58.5159Z" fill="white"/>
</g>
<defs>
<filter id="filter0_d_18_2112" x="0" y="0" width="110" height="110" filterUnits="userSpaceOnUse" color-interpolation-filters="sRGB">
<feFlood flood-opacity="0" result="BackgroundImageFix"/>
<feColorMatrix in="SourceAlpha" type="matrix" values="0 0 0 0 0 0 0 0 0 0 0 0 0 0 0 0 0 0 127 0" result="hardAlpha"/>
<feMorphology radius="5" operator="dilate" in="SourceAlpha" result="effect1_dropShadow_18_2112"/>
<feOffset dx="1" dy="1"/>
<feGaussianBlur stdDeviation="5"/>
<feComposite in2="hardAlpha" operator="out"/>
<feColorMatrix type="matrix" values="0 0 0 0 0 0 0 0 0 0 0 0 0 0 0 0 0 0 0.05 0"/>
<feBlend mode="normal" in2="BackgroundImageFix" result="effect1_dropShadow_18_2112"/>
<feBlend mode="normal" in="SourceGraphic" in2="effect1_dropShadow_18_2112" result="shape"/>
</filter>
</defs>
</svg>
